<mxfile host="app.diagrams.net" modified="2023-05-16T15:53:40.337Z" agent="Mozilla/5.0 (X11; Ubuntu; Linux x86_64; rv:109.0) Gecko/20100101 Firefox/112.0" etag="o3QhceG-xMHVJLy4klCp" version="21.3.0" type="device" pages="3">
  <diagram id="aNipMCgoFr5Zwash_G46" name="AvalonMM_to_SSRAM">
    <mxGraphModel dx="1946" dy="1094" grid="1" gridSize="10" guides="1" tooltips="1" connect="1" arrows="1" fold="1" page="1" pageScale="1" pageWidth="850" pageHeight="1100" math="0" shadow="0">
      <root>
        <mxCell id="0" />
        <mxCell id="1" parent="0" />
        <mxCell id="7uRNbXWkZxl7LxoGMfkp-1" value="" style="rounded=0;whiteSpace=wrap;html=1;" parent="1" vertex="1">
          <mxGeometry x="240" y="200" width="400" height="400" as="geometry" />
        </mxCell>
        <mxCell id="7uRNbXWkZxl7LxoGMfkp-2" value="&lt;font style=&quot;font-size: 15px;&quot;&gt;avs_s0_&lt;font style=&quot;font-size: 15px;&quot;&gt;address&lt;/font&gt;&lt;/font&gt;" style="text;html=1;align=left;verticalAlign=middle;resizable=0;points=[];autosize=1;strokeColor=none;fillColor=none;" parent="1" vertex="1">
          <mxGeometry x="245" y="225" width="130" height="30" as="geometry" />
        </mxCell>
        <mxCell id="7uRNbXWkZxl7LxoGMfkp-3" value="&lt;font style=&quot;font-size: 15px;&quot;&gt;avs_s0_&lt;/font&gt;readdata" style="text;html=1;align=left;verticalAlign=middle;resizable=0;points=[];autosize=1;strokeColor=none;fillColor=none;fontSize=15;" parent="1" vertex="1">
          <mxGeometry x="245" y="265" width="140" height="30" as="geometry" />
        </mxCell>
        <mxCell id="7uRNbXWkZxl7LxoGMfkp-4" value="&lt;font style=&quot;font-size: 15px;&quot;&gt;avs_s0_&lt;/font&gt;read" style="text;html=1;align=left;verticalAlign=middle;resizable=0;points=[];autosize=1;strokeColor=none;fillColor=none;fontSize=15;" parent="1" vertex="1">
          <mxGeometry x="245" y="345" width="110" height="30" as="geometry" />
        </mxCell>
        <mxCell id="7uRNbXWkZxl7LxoGMfkp-5" value="&lt;font style=&quot;font-size: 15px;&quot;&gt;avs_s0_w&lt;/font&gt;ritedata" style="text;html=1;align=left;verticalAlign=middle;resizable=0;points=[];autosize=1;strokeColor=none;fillColor=none;fontSize=15;" parent="1" vertex="1">
          <mxGeometry x="245" y="305" width="140" height="30" as="geometry" />
        </mxCell>
        <mxCell id="7uRNbXWkZxl7LxoGMfkp-6" value="&lt;font style=&quot;font-size: 15px;&quot;&gt;avs_s0_&lt;font style=&quot;font-size: 15px;&quot;&gt;&lt;/font&gt;&lt;/font&gt;write" style="text;html=1;align=left;verticalAlign=middle;resizable=0;points=[];autosize=1;strokeColor=none;fillColor=none;fontSize=15;" parent="1" vertex="1">
          <mxGeometry x="245" y="385" width="110" height="30" as="geometry" />
        </mxCell>
        <mxCell id="7uRNbXWkZxl7LxoGMfkp-7" value="&lt;font style=&quot;font-size: 15px;&quot;&gt;avs_s0_&lt;font style=&quot;font-size: 15px;&quot;&gt;&lt;/font&gt;&lt;/font&gt;waitrequest" style="text;html=1;align=left;verticalAlign=middle;resizable=0;points=[];autosize=1;strokeColor=none;fillColor=none;fontSize=15;" parent="1" vertex="1">
          <mxGeometry x="245" y="425" width="160" height="30" as="geometry" />
        </mxCell>
        <mxCell id="7uRNbXWkZxl7LxoGMfkp-8" value="clk" style="text;html=1;align=left;verticalAlign=middle;resizable=0;points=[];autosize=1;strokeColor=none;fillColor=none;fontSize=15;" parent="1" vertex="1">
          <mxGeometry x="245" y="505" width="40" height="30" as="geometry" />
        </mxCell>
        <mxCell id="7uRNbXWkZxl7LxoGMfkp-14" value="AvalonMM_to_SSRAM" style="rounded=0;whiteSpace=wrap;html=1;fontSize=15;" parent="1" vertex="1">
          <mxGeometry x="240" y="160" width="400" height="40" as="geometry" />
        </mxCell>
        <mxCell id="7uRNbXWkZxl7LxoGMfkp-15" value="" style="endArrow=classic;html=1;rounded=0;fontSize=15;" parent="1" edge="1">
          <mxGeometry width="50" height="50" relative="1" as="geometry">
            <mxPoint x="640" y="400" as="sourcePoint" />
            <mxPoint x="700" y="400" as="targetPoint" />
          </mxGeometry>
        </mxCell>
        <mxCell id="7uRNbXWkZxl7LxoGMfkp-16" value="1" style="text;html=1;align=center;verticalAlign=middle;resizable=0;points=[];autosize=1;strokeColor=none;fillColor=none;fontSize=15;" parent="1" vertex="1">
          <mxGeometry x="660" y="419.31" width="20" height="20" as="geometry" />
        </mxCell>
        <mxCell id="7uRNbXWkZxl7LxoGMfkp-17" value="" style="endArrow=classic;html=1;rounded=0;fontSize=15;" parent="1" edge="1">
          <mxGeometry width="50" height="50" relative="1" as="geometry">
            <mxPoint x="640" y="319.9999999999999" as="sourcePoint" />
            <mxPoint x="700" y="319.9999999999999" as="targetPoint" />
          </mxGeometry>
        </mxCell>
        <mxCell id="7uRNbXWkZxl7LxoGMfkp-18" value="1" style="text;html=1;align=center;verticalAlign=middle;resizable=0;points=[];autosize=1;strokeColor=none;fillColor=none;fontSize=15;" parent="1" vertex="1">
          <mxGeometry x="660" y="379.31" width="20" height="20" as="geometry" />
        </mxCell>
        <mxCell id="7uRNbXWkZxl7LxoGMfkp-19" value="" style="endArrow=classic;html=1;rounded=0;fontSize=15;" parent="1" edge="1">
          <mxGeometry width="50" height="50" relative="1" as="geometry">
            <mxPoint x="640" y="440" as="sourcePoint" />
            <mxPoint x="700" y="440" as="targetPoint" />
          </mxGeometry>
        </mxCell>
        <mxCell id="7uRNbXWkZxl7LxoGMfkp-23" value="" style="endArrow=classic;html=1;rounded=0;fontSize=15;" parent="1" edge="1">
          <mxGeometry width="50" height="50" relative="1" as="geometry">
            <mxPoint x="180" y="520" as="sourcePoint" />
            <mxPoint x="240" y="520" as="targetPoint" />
          </mxGeometry>
        </mxCell>
        <mxCell id="7uRNbXWkZxl7LxoGMfkp-24" value="1" style="text;html=1;align=center;verticalAlign=middle;resizable=0;points=[];autosize=1;strokeColor=none;fillColor=none;fontSize=15;" parent="1" vertex="1">
          <mxGeometry x="200" y="500" width="20" height="20" as="geometry" />
        </mxCell>
        <mxCell id="7uRNbXWkZxl7LxoGMfkp-25" value="" style="endArrow=classic;html=1;rounded=0;fontSize=15;" parent="1" edge="1">
          <mxGeometry width="50" height="50" relative="1" as="geometry">
            <mxPoint x="240" y="440" as="sourcePoint" />
            <mxPoint x="180" y="440" as="targetPoint" />
          </mxGeometry>
        </mxCell>
        <mxCell id="7uRNbXWkZxl7LxoGMfkp-26" value="1" style="text;html=1;align=center;verticalAlign=middle;resizable=0;points=[];autosize=1;strokeColor=none;fillColor=none;fontSize=15;" parent="1" vertex="1">
          <mxGeometry x="200" y="419.31" width="20" height="20" as="geometry" />
        </mxCell>
        <mxCell id="7uRNbXWkZxl7LxoGMfkp-27" value="" style="endArrow=classic;html=1;rounded=0;fontSize=15;" parent="1" edge="1">
          <mxGeometry width="50" height="50" relative="1" as="geometry">
            <mxPoint x="180" y="400" as="sourcePoint" />
            <mxPoint x="240" y="400" as="targetPoint" />
          </mxGeometry>
        </mxCell>
        <mxCell id="7uRNbXWkZxl7LxoGMfkp-28" value="1" style="text;html=1;align=center;verticalAlign=middle;resizable=0;points=[];autosize=1;strokeColor=none;fillColor=none;fontSize=15;" parent="1" vertex="1">
          <mxGeometry x="200" y="379.31" width="20" height="20" as="geometry" />
        </mxCell>
        <mxCell id="7uRNbXWkZxl7LxoGMfkp-29" value="" style="endArrow=classic;html=1;rounded=0;fontSize=15;" parent="1" edge="1">
          <mxGeometry width="50" height="50" relative="1" as="geometry">
            <mxPoint x="180" y="360" as="sourcePoint" />
            <mxPoint x="240" y="360" as="targetPoint" />
          </mxGeometry>
        </mxCell>
        <mxCell id="7uRNbXWkZxl7LxoGMfkp-30" value="1" style="text;html=1;align=center;verticalAlign=middle;resizable=0;points=[];autosize=1;strokeColor=none;fillColor=none;fontSize=15;" parent="1" vertex="1">
          <mxGeometry x="200" y="339.31" width="20" height="20" as="geometry" />
        </mxCell>
        <mxCell id="7uRNbXWkZxl7LxoGMfkp-31" value="" style="endArrow=classic;html=1;rounded=0;fontSize=15;" parent="1" edge="1">
          <mxGeometry width="50" height="50" relative="1" as="geometry">
            <mxPoint x="180" y="320" as="sourcePoint" />
            <mxPoint x="240" y="320" as="targetPoint" />
          </mxGeometry>
        </mxCell>
        <mxCell id="7uRNbXWkZxl7LxoGMfkp-32" value="" style="endArrow=none;html=1;rounded=0;fontSize=15;startArrow=classic;startFill=1;endFill=0;" parent="1" edge="1">
          <mxGeometry width="50" height="50" relative="1" as="geometry">
            <mxPoint x="640" y="520" as="sourcePoint" />
            <mxPoint x="700" y="520" as="targetPoint" />
          </mxGeometry>
        </mxCell>
        <mxCell id="7uRNbXWkZxl7LxoGMfkp-33" value="32" style="text;html=1;align=center;verticalAlign=middle;resizable=0;points=[];autosize=1;strokeColor=none;fillColor=none;fontSize=15;" parent="1" vertex="1">
          <mxGeometry x="650" y="215" width="40" height="30" as="geometry" />
        </mxCell>
        <mxCell id="7uRNbXWkZxl7LxoGMfkp-34" value="" style="endArrow=classic;html=1;rounded=0;fontSize=15;" parent="1" edge="1">
          <mxGeometry width="50" height="50" relative="1" as="geometry">
            <mxPoint x="240" y="280" as="sourcePoint" />
            <mxPoint x="180" y="280" as="targetPoint" />
          </mxGeometry>
        </mxCell>
        <mxCell id="7uRNbXWkZxl7LxoGMfkp-35" value="" style="endArrow=classic;html=1;rounded=0;fontSize=15;" parent="1" edge="1">
          <mxGeometry width="50" height="50" relative="1" as="geometry">
            <mxPoint x="180" y="240" as="sourcePoint" />
            <mxPoint x="240" y="240" as="targetPoint" />
          </mxGeometry>
        </mxCell>
        <mxCell id="7uRNbXWkZxl7LxoGMfkp-36" value="32" style="text;html=1;align=center;verticalAlign=middle;resizable=0;points=[];autosize=1;strokeColor=none;fillColor=none;fontSize=15;" parent="1" vertex="1">
          <mxGeometry x="195" y="220" width="30" height="20" as="geometry" />
        </mxCell>
        <mxCell id="7uRNbXWkZxl7LxoGMfkp-37" value="16" style="text;html=1;align=center;verticalAlign=middle;resizable=0;points=[];autosize=1;strokeColor=none;fillColor=none;fontSize=15;" parent="1" vertex="1">
          <mxGeometry x="195" y="260" width="30" height="20" as="geometry" />
        </mxCell>
        <mxCell id="7uRNbXWkZxl7LxoGMfkp-38" value="16" style="text;html=1;align=center;verticalAlign=middle;resizable=0;points=[];autosize=1;strokeColor=none;fillColor=none;fontSize=15;" parent="1" vertex="1">
          <mxGeometry x="195" y="300" width="30" height="20" as="geometry" />
        </mxCell>
        <mxCell id="7uRNbXWkZxl7LxoGMfkp-39" value="rst_n" style="text;html=1;align=left;verticalAlign=middle;resizable=0;points=[];autosize=1;strokeColor=none;fillColor=none;fontSize=15;" parent="1" vertex="1">
          <mxGeometry x="245" y="545" width="60" height="30" as="geometry" />
        </mxCell>
        <mxCell id="7uRNbXWkZxl7LxoGMfkp-40" value="" style="endArrow=classic;html=1;rounded=0;fontSize=15;" parent="1" edge="1">
          <mxGeometry width="50" height="50" relative="1" as="geometry">
            <mxPoint x="180" y="560" as="sourcePoint" />
            <mxPoint x="240" y="560" as="targetPoint" />
          </mxGeometry>
        </mxCell>
        <mxCell id="7uRNbXWkZxl7LxoGMfkp-41" value="1" style="text;html=1;align=center;verticalAlign=middle;resizable=0;points=[];autosize=1;strokeColor=none;fillColor=none;fontSize=15;" parent="1" vertex="1">
          <mxGeometry x="200" y="540" width="20" height="20" as="geometry" />
        </mxCell>
        <mxCell id="7uRNbXWkZxl7LxoGMfkp-42" value="&lt;font style=&quot;font-size: 15px;&quot;&gt;avs_s0_&lt;font style=&quot;font-size: 15px;&quot;&gt;&lt;/font&gt;&lt;/font&gt;readdatavalid" style="text;html=1;align=left;verticalAlign=middle;resizable=0;points=[];autosize=1;strokeColor=none;fillColor=none;fontSize=15;" parent="1" vertex="1">
          <mxGeometry x="245" y="465.69" width="170" height="30" as="geometry" />
        </mxCell>
        <mxCell id="7uRNbXWkZxl7LxoGMfkp-43" value="" style="endArrow=classic;html=1;rounded=0;fontSize=15;" parent="1" edge="1">
          <mxGeometry width="50" height="50" relative="1" as="geometry">
            <mxPoint x="240" y="480" as="sourcePoint" />
            <mxPoint x="180" y="480" as="targetPoint" />
          </mxGeometry>
        </mxCell>
        <mxCell id="7uRNbXWkZxl7LxoGMfkp-44" value="1" style="text;html=1;align=center;verticalAlign=middle;resizable=0;points=[];autosize=1;strokeColor=none;fillColor=none;fontSize=15;" parent="1" vertex="1">
          <mxGeometry x="202.5" y="460" width="20" height="20" as="geometry" />
        </mxCell>
        <mxCell id="O9NMfc2VU4IbGUOjIKSB-1" value="&lt;font style=&quot;font-size: 15px;&quot;&gt;ssram_&lt;/font&gt;&lt;font style=&quot;font-size: 15px;&quot;&gt;&lt;font style=&quot;font-size: 15px;&quot;&gt;address&lt;/font&gt;&lt;/font&gt;" style="text;html=1;align=right;verticalAlign=middle;resizable=0;points=[];autosize=1;strokeColor=none;fillColor=none;" parent="1" vertex="1">
          <mxGeometry x="505" y="225" width="130" height="30" as="geometry" />
        </mxCell>
        <mxCell id="O9NMfc2VU4IbGUOjIKSB-2" value="&lt;font style=&quot;font-size: 15px;&quot;&gt;ssram_&lt;/font&gt;&lt;font style=&quot;font-size: 15px;&quot;&gt;out&lt;/font&gt;" style="text;html=1;align=right;verticalAlign=middle;resizable=0;points=[];autosize=1;strokeColor=none;fillColor=none;" parent="1" vertex="1">
          <mxGeometry x="545" y="345" width="90" height="30" as="geometry" />
        </mxCell>
        <mxCell id="O9NMfc2VU4IbGUOjIKSB-3" value="&lt;font style=&quot;font-size: 15px;&quot;&gt;ssram_i&lt;/font&gt;&lt;font style=&quot;font-size: 15px;&quot;&gt;n&lt;/font&gt;" style="text;html=1;align=right;verticalAlign=middle;resizable=0;points=[];autosize=1;strokeColor=none;fillColor=none;" parent="1" vertex="1">
          <mxGeometry x="555" y="305" width="80" height="30" as="geometry" />
        </mxCell>
        <mxCell id="O9NMfc2VU4IbGUOjIKSB-4" value="&lt;font style=&quot;font-size: 15px;&quot;&gt;ssram_&lt;/font&gt;&lt;font style=&quot;font-size: 15px;&quot;&gt;&lt;font style=&quot;font-size: 15px;&quot;&gt;validout&lt;/font&gt;&lt;/font&gt;" style="text;html=1;align=right;verticalAlign=middle;resizable=0;points=[];autosize=1;strokeColor=none;fillColor=none;" parent="1" vertex="1">
          <mxGeometry x="515" y="465" width="120" height="30" as="geometry" />
        </mxCell>
        <mxCell id="O9NMfc2VU4IbGUOjIKSB-5" value="&lt;font style=&quot;font-size: 15px;&quot;&gt;ssram_&lt;/font&gt;&lt;font style=&quot;font-size: 15px;&quot;&gt;WE&lt;/font&gt;" style="text;html=1;align=right;verticalAlign=middle;resizable=0;points=[];autosize=1;strokeColor=none;fillColor=none;rotation=0;" parent="1" vertex="1">
          <mxGeometry x="535" y="425" width="100" height="30" as="geometry" />
        </mxCell>
        <mxCell id="O9NMfc2VU4IbGUOjIKSB-6" value="&lt;font style=&quot;font-size: 15px;&quot;&gt;ssram_&lt;/font&gt;&lt;font style=&quot;font-size: 15px;&quot;&gt;OE&lt;/font&gt;" style="text;html=1;align=right;verticalAlign=middle;resizable=0;points=[];autosize=1;strokeColor=none;fillColor=none;rotation=0;" parent="1" vertex="1">
          <mxGeometry x="545" y="385" width="90" height="30" as="geometry" />
        </mxCell>
        <mxCell id="O9NMfc2VU4IbGUOjIKSB-7" value="&lt;font style=&quot;font-size: 15px;&quot;&gt;ssram_&lt;/font&gt;&lt;font style=&quot;font-size: 15px;&quot;&gt;busy&lt;/font&gt;" style="text;html=1;align=right;verticalAlign=middle;resizable=0;points=[];autosize=1;strokeColor=none;fillColor=none;" parent="1" vertex="1">
          <mxGeometry x="535" y="505" width="100" height="30" as="geometry" />
        </mxCell>
        <mxCell id="O9NMfc2VU4IbGUOjIKSB-9" value="" style="endArrow=none;html=1;rounded=0;fontSize=15;startArrow=classic;startFill=1;endFill=0;" parent="1" edge="1">
          <mxGeometry width="50" height="50" relative="1" as="geometry">
            <mxPoint x="640" y="480" as="sourcePoint" />
            <mxPoint x="700" y="480" as="targetPoint" />
          </mxGeometry>
        </mxCell>
        <mxCell id="O9NMfc2VU4IbGUOjIKSB-10" value="" style="endArrow=none;html=1;rounded=0;fontSize=15;startArrow=classic;startFill=1;endFill=0;" parent="1" edge="1">
          <mxGeometry width="50" height="50" relative="1" as="geometry">
            <mxPoint x="640" y="360" as="sourcePoint" />
            <mxPoint x="700" y="360" as="targetPoint" />
          </mxGeometry>
        </mxCell>
        <mxCell id="bcyavMN69FrFH7wbn9DO-2" value="" style="endArrow=classic;html=1;rounded=0;fontSize=15;" parent="1" edge="1">
          <mxGeometry width="50" height="50" relative="1" as="geometry">
            <mxPoint x="640" y="240" as="sourcePoint" />
            <mxPoint x="700" y="240" as="targetPoint" />
          </mxGeometry>
        </mxCell>
        <mxCell id="RlWbitO6EM8BJqmgNqRc-1" value="1" style="text;html=1;align=center;verticalAlign=middle;resizable=0;points=[];autosize=1;strokeColor=none;fillColor=none;fontSize=15;" parent="1" vertex="1">
          <mxGeometry x="660" y="500" width="20" height="20" as="geometry" />
        </mxCell>
        <mxCell id="RlWbitO6EM8BJqmgNqRc-2" value="1" style="text;html=1;align=center;verticalAlign=middle;resizable=0;points=[];autosize=1;strokeColor=none;fillColor=none;fontSize=15;" parent="1" vertex="1">
          <mxGeometry x="660" y="460" width="20" height="20" as="geometry" />
        </mxCell>
        <mxCell id="RlWbitO6EM8BJqmgNqRc-3" value="16" style="text;html=1;align=center;verticalAlign=middle;resizable=0;points=[];autosize=1;strokeColor=none;fillColor=none;fontSize=15;" parent="1" vertex="1">
          <mxGeometry x="655" y="300" width="30" height="20" as="geometry" />
        </mxCell>
        <mxCell id="RlWbitO6EM8BJqmgNqRc-4" value="16" style="text;html=1;align=center;verticalAlign=middle;resizable=0;points=[];autosize=1;strokeColor=none;fillColor=none;fontSize=15;" parent="1" vertex="1">
          <mxGeometry x="655" y="339.31" width="30" height="20" as="geometry" />
        </mxCell>
        <mxCell id="g8C0Mqhqmcd-Wye-2PPk-1" value="" style="endArrow=classic;html=1;rounded=0;fontSize=15;" parent="1" edge="1">
          <mxGeometry width="50" height="50" relative="1" as="geometry">
            <mxPoint x="640" y="559.9999999999999" as="sourcePoint" />
            <mxPoint x="700" y="559.9999999999999" as="targetPoint" />
          </mxGeometry>
        </mxCell>
        <mxCell id="g8C0Mqhqmcd-Wye-2PPk-2" value="1" style="text;html=1;align=center;verticalAlign=middle;resizable=0;points=[];autosize=1;strokeColor=none;fillColor=none;fontSize=15;" parent="1" vertex="1">
          <mxGeometry x="660" y="540" width="20" height="20" as="geometry" />
        </mxCell>
        <mxCell id="g8C0Mqhqmcd-Wye-2PPk-3" value="&lt;font style=&quot;font-size: 15px;&quot;&gt;ssram_clear_n&lt;/font&gt;" style="text;html=1;align=right;verticalAlign=middle;resizable=0;points=[];autosize=1;strokeColor=none;fillColor=none;" parent="1" vertex="1">
          <mxGeometry x="515" y="545" width="120" height="30" as="geometry" />
        </mxCell>
        <mxCell id="lHwEbxfXvSUswyJkpIzo-2" value="&lt;font style=&quot;font-size: 15px;&quot;&gt;ssram_&lt;font style=&quot;font-size: 15px;&quot;&gt;&lt;font style=&quot;font-size: 15px;&quot;&gt;address&lt;/font&gt;&lt;/font&gt;_space&lt;/font&gt;" style="text;html=1;align=right;verticalAlign=middle;resizable=0;points=[];autosize=1;strokeColor=none;fillColor=none;" vertex="1" parent="1">
          <mxGeometry x="465" y="265" width="170" height="30" as="geometry" />
        </mxCell>
        <mxCell id="lHwEbxfXvSUswyJkpIzo-3" value="" style="endArrow=classic;html=1;rounded=0;fontSize=15;" edge="1" parent="1">
          <mxGeometry width="50" height="50" relative="1" as="geometry">
            <mxPoint x="640" y="279.43" as="sourcePoint" />
            <mxPoint x="700" y="279.43" as="targetPoint" />
          </mxGeometry>
        </mxCell>
        <mxCell id="lHwEbxfXvSUswyJkpIzo-4" value="1" style="text;html=1;align=center;verticalAlign=middle;resizable=0;points=[];autosize=1;strokeColor=none;fillColor=none;fontSize=15;" vertex="1" parent="1">
          <mxGeometry x="660" y="258.74" width="20" height="20" as="geometry" />
        </mxCell>
        <mxCell id="lHwEbxfXvSUswyJkpIzo-5" value="&lt;div&gt;&lt;font style=&quot;font-size: 15px;&quot;&gt;La descrizione e i timing diagram dei segnali lato AvalonMM è contenuta nel manuale del bus Avalon fornito da Intel.&lt;/font&gt;&lt;/div&gt;&lt;div&gt;&lt;font style=&quot;font-size: 15px;&quot;&gt;&lt;br&gt;&lt;/font&gt;&lt;/div&gt;&lt;div&gt;&lt;font style=&quot;font-size: 15px;&quot;&gt;Per quanto riguarda il lato SSRAM:&lt;/font&gt;&lt;/div&gt;&lt;div style=&quot;font-size: 15px;&quot;&gt;&lt;ul&gt;&lt;li&gt;ssram_in: dato in ingresso alla memoria in fase di scrittura&lt;/li&gt;&lt;li&gt;ssram_out: dato in uscita dalla mermoria in fase di scrittura&lt;/li&gt;&lt;li&gt;ssram_address: indirizzo al quale effettuare l&#39;operazione di lettura/scrittura&lt;/li&gt;&lt;li&gt;ssram_address_spacing: selezione spazio di memoria / registri di configurazione&lt;br&gt;&lt;/li&gt;&lt;li&gt;ssram_OE: richiesta operazione di lettura (da attivare contemporaneamente all&#39;indirizzo)&lt;/li&gt;&lt;li&gt;ssram_WE: richiesta operazione di scrittura (da attivare contemporaneamente all&#39;indirizzo e al dato in ingresso)&lt;/li&gt;&lt;li&gt;ssram_validout: segnale di validità del dato in uscita (attivo contemporaneamente all&#39;uscita valida)&lt;br&gt;&lt;/li&gt;&lt;li&gt;ssram_busy: segnale tramite il quale la memoria segnala di non poter campionare i valori in ingresso ad essa&lt;/li&gt;&lt;/ul&gt;&lt;/div&gt;" style="text;html=1;strokeColor=none;fillColor=none;spacing=5;spacingTop=-20;whiteSpace=wrap;overflow=hidden;rounded=0;" vertex="1" parent="1">
          <mxGeometry x="45" y="730" width="790" height="240" as="geometry" />
        </mxCell>
      </root>
    </mxGraphModel>
  </diagram>
  <diagram name="AvalonMM_to_SSRAM: RTL" id="xgOTYnnc5dOO5Jlde8V4">
    <mxGraphModel dx="3574" dy="1532" grid="1" gridSize="10" guides="1" tooltips="1" connect="1" arrows="1" fold="1" page="1" pageScale="1" pageWidth="850" pageHeight="1100" math="0" shadow="0">
      <root>
        <mxCell id="sEW1re1bT8H7BAdPNqU6-0" />
        <mxCell id="sEW1re1bT8H7BAdPNqU6-1" parent="sEW1re1bT8H7BAdPNqU6-0" />
        <mxCell id="sEW1re1bT8H7BAdPNqU6-2" style="edgeStyle=orthogonalEdgeStyle;rounded=0;orthogonalLoop=1;jettySize=auto;html=1;entryX=0.5;entryY=0;entryDx=0;entryDy=0;" parent="sEW1re1bT8H7BAdPNqU6-1" target="sEW1re1bT8H7BAdPNqU6-31" edge="1">
          <mxGeometry relative="1" as="geometry">
            <mxPoint x="240" y="480" as="targetPoint" />
            <Array as="points" />
            <mxPoint x="1400" y="480" as="sourcePoint" />
          </mxGeometry>
        </mxCell>
        <mxCell id="sEW1re1bT8H7BAdPNqU6-3" value="&lt;font style=&quot;font-size: 15px;&quot;&gt;avs_s0_&lt;font style=&quot;font-size: 15px;&quot;&gt;address&lt;/font&gt;&lt;/font&gt;" style="text;html=1;align=right;verticalAlign=middle;resizable=0;points=[];autosize=1;strokeColor=none;fillColor=none;" parent="sEW1re1bT8H7BAdPNqU6-1" vertex="1">
          <mxGeometry x="-529.5" y="1144.87" width="130" height="30" as="geometry" />
        </mxCell>
        <mxCell id="sEW1re1bT8H7BAdPNqU6-4" value="avs_s0_readdata" style="text;html=1;align=right;verticalAlign=middle;resizable=0;points=[];autosize=1;strokeColor=none;fillColor=none;fontSize=15;" parent="sEW1re1bT8H7BAdPNqU6-1" vertex="1">
          <mxGeometry x="-541" y="535" width="140" height="30" as="geometry" />
        </mxCell>
        <mxCell id="sEW1re1bT8H7BAdPNqU6-5" value="avs_s0_read" style="text;html=1;align=right;verticalAlign=middle;resizable=0;points=[];autosize=1;strokeColor=none;fillColor=none;fontSize=15;" parent="sEW1re1bT8H7BAdPNqU6-1" vertex="1">
          <mxGeometry x="-509" y="1264.33" width="110" height="30" as="geometry" />
        </mxCell>
        <mxCell id="sEW1re1bT8H7BAdPNqU6-6" value="avs_s0_writedata" style="text;html=1;align=right;verticalAlign=middle;resizable=0;points=[];autosize=1;strokeColor=none;fillColor=none;fontSize=15;" parent="sEW1re1bT8H7BAdPNqU6-1" vertex="1">
          <mxGeometry x="-536.5" y="1204.33" width="140" height="30" as="geometry" />
        </mxCell>
        <mxCell id="sEW1re1bT8H7BAdPNqU6-7" value="avs_s0_write" style="text;html=1;align=right;verticalAlign=middle;resizable=0;points=[];autosize=1;strokeColor=none;fillColor=none;fontSize=15;" parent="sEW1re1bT8H7BAdPNqU6-1" vertex="1">
          <mxGeometry x="-506.5" y="1324.33" width="110" height="30" as="geometry" />
        </mxCell>
        <mxCell id="sEW1re1bT8H7BAdPNqU6-8" value="avs_s0_waitrequest" style="text;html=1;align=right;verticalAlign=middle;resizable=0;points=[];autosize=1;strokeColor=none;fillColor=none;fontSize=15;" parent="sEW1re1bT8H7BAdPNqU6-1" vertex="1">
          <mxGeometry x="-559.5" y="445" width="160" height="30" as="geometry" />
        </mxCell>
        <mxCell id="sEW1re1bT8H7BAdPNqU6-9" value="" style="endArrow=classic;html=1;rounded=0;fontSize=15;" parent="sEW1re1bT8H7BAdPNqU6-1" edge="1">
          <mxGeometry width="50" height="50" relative="1" as="geometry">
            <mxPoint x="-160" y="460" as="sourcePoint" />
            <mxPoint x="-380" y="460" as="targetPoint" />
            <Array as="points" />
          </mxGeometry>
        </mxCell>
        <mxCell id="sEW1re1bT8H7BAdPNqU6-10" value="&lt;font style=&quot;font-size: 12px;&quot;&gt;31 downto 0&lt;/font&gt;" style="text;html=1;align=center;verticalAlign=middle;resizable=0;points=[];autosize=1;strokeColor=none;fillColor=none;fontSize=15;" parent="sEW1re1bT8H7BAdPNqU6-1" vertex="1">
          <mxGeometry x="-169.5" y="1134.4099999999999" width="90" height="30" as="geometry" />
        </mxCell>
        <mxCell id="sEW1re1bT8H7BAdPNqU6-11" value="&lt;font style=&quot;font-size: 12px;&quot;&gt;47 downto 32&lt;/font&gt;" style="text;html=1;align=center;verticalAlign=middle;resizable=0;points=[];autosize=1;strokeColor=none;fillColor=none;fontSize=15;" parent="sEW1re1bT8H7BAdPNqU6-1" vertex="1">
          <mxGeometry x="-174" y="1193.87" width="100" height="30" as="geometry" />
        </mxCell>
        <mxCell id="sEW1re1bT8H7BAdPNqU6-12" value="" style="endArrow=classic;html=1;rounded=0;fontSize=15;" parent="sEW1re1bT8H7BAdPNqU6-1" edge="1">
          <mxGeometry width="50" height="50" relative="1" as="geometry">
            <mxPoint x="-380" y="1160" as="sourcePoint" />
            <mxPoint x="-60" y="1099.6" as="targetPoint" />
            <Array as="points">
              <mxPoint x="-60" y="1159.4099999999999" />
            </Array>
          </mxGeometry>
        </mxCell>
        <mxCell id="sEW1re1bT8H7BAdPNqU6-13" value="&lt;font style=&quot;font-size: 15px;&quot;&gt;readdatavalid&lt;/font&gt;" style="text;html=1;align=left;verticalAlign=middle;resizable=0;points=[];autosize=1;strokeColor=none;fillColor=none;rotation=-90;" parent="sEW1re1bT8H7BAdPNqU6-1" vertex="1">
          <mxGeometry x="-294" y="199.39999999999998" width="110" height="30" as="geometry" />
        </mxCell>
        <mxCell id="sEW1re1bT8H7BAdPNqU6-14" value="" style="endArrow=classic;html=1;rounded=0;fontSize=15;" parent="sEW1re1bT8H7BAdPNqU6-1" edge="1">
          <mxGeometry width="50" height="50" relative="1" as="geometry">
            <mxPoint x="-240" y="360" as="sourcePoint" />
            <mxPoint x="-380" y="360" as="targetPoint" />
          </mxGeometry>
        </mxCell>
        <mxCell id="sEW1re1bT8H7BAdPNqU6-15" value="&lt;div align=&quot;right&quot;&gt;&lt;font style=&quot;font-size: 15px;&quot;&gt;avs_s0_readdatavalid&lt;/font&gt;&lt;/div&gt;" style="text;html=1;align=right;verticalAlign=middle;resizable=0;points=[];autosize=1;strokeColor=none;fillColor=none;" parent="sEW1re1bT8H7BAdPNqU6-1" vertex="1">
          <mxGeometry x="-571" y="346" width="170" height="30" as="geometry" />
        </mxCell>
        <mxCell id="sEW1re1bT8H7BAdPNqU6-16" value="&lt;font style=&quot;font-size: 15px;&quot;&gt;ssram_&lt;/font&gt;&lt;font style=&quot;font-size: 15px;&quot;&gt;&lt;font style=&quot;font-size: 15px;&quot;&gt;address&lt;/font&gt;&lt;/font&gt;" style="text;html=1;align=left;verticalAlign=middle;resizable=0;points=[];autosize=1;strokeColor=none;fillColor=none;" parent="sEW1re1bT8H7BAdPNqU6-1" vertex="1">
          <mxGeometry x="1419" y="1114.9999999999998" width="130" height="30" as="geometry" />
        </mxCell>
        <mxCell id="sEW1re1bT8H7BAdPNqU6-17" value="" style="endArrow=classic;html=1;rounded=0;strokeColor=#00FF00;endFill=1;" parent="sEW1re1bT8H7BAdPNqU6-1" edge="1">
          <mxGeometry width="50" height="50" relative="1" as="geometry">
            <mxPoint x="-240" y="290" as="sourcePoint" />
            <mxPoint x="-240" y="360" as="targetPoint" />
          </mxGeometry>
        </mxCell>
        <mxCell id="sEW1re1bT8H7BAdPNqU6-18" value="&lt;font style=&quot;font-size: 15px;&quot;&gt;ssram_&lt;/font&gt;&lt;font style=&quot;font-size: 15px;&quot;&gt;&lt;font style=&quot;font-size: 15px;&quot;&gt;out&lt;/font&gt;&lt;/font&gt;" style="text;html=1;align=left;verticalAlign=middle;resizable=0;points=[];autosize=1;strokeColor=none;fillColor=none;" parent="sEW1re1bT8H7BAdPNqU6-1" vertex="1">
          <mxGeometry x="1420" y="466.2399999999998" width="90" height="30" as="geometry" />
        </mxCell>
        <mxCell id="sEW1re1bT8H7BAdPNqU6-19" value="&lt;font style=&quot;font-size: 15px;&quot;&gt;ssram_&lt;/font&gt;&lt;font style=&quot;font-size: 15px;&quot;&gt;in&lt;/font&gt;" style="text;html=1;align=left;verticalAlign=middle;resizable=0;points=[];autosize=1;strokeColor=none;fillColor=none;" parent="sEW1re1bT8H7BAdPNqU6-1" vertex="1">
          <mxGeometry x="1417" y="784.9999999999998" width="80" height="30" as="geometry" />
        </mxCell>
        <mxCell id="sEW1re1bT8H7BAdPNqU6-20" value="&lt;font style=&quot;font-size: 15px;&quot;&gt;ssram_&lt;/font&gt;&lt;font style=&quot;font-size: 15px;&quot;&gt;&lt;font style=&quot;font-size: 15px;&quot;&gt;validout&lt;/font&gt;&lt;/font&gt;" style="text;html=1;align=left;verticalAlign=middle;resizable=0;points=[];autosize=1;strokeColor=none;fillColor=none;" parent="sEW1re1bT8H7BAdPNqU6-1" vertex="1">
          <mxGeometry x="1419" y="1755.9999999999998" width="120" height="30" as="geometry" />
        </mxCell>
        <mxCell id="sEW1re1bT8H7BAdPNqU6-21" value="&lt;font style=&quot;font-size: 15px;&quot;&gt;ssram_&lt;/font&gt;&lt;font style=&quot;font-size: 15px;&quot;&gt;WE&lt;/font&gt;" style="text;html=1;align=left;verticalAlign=middle;resizable=0;points=[];autosize=1;strokeColor=none;fillColor=none;rotation=0;" parent="sEW1re1bT8H7BAdPNqU6-1" vertex="1">
          <mxGeometry x="1420" y="1424.8999999999999" width="100" height="30" as="geometry" />
        </mxCell>
        <mxCell id="sEW1re1bT8H7BAdPNqU6-22" value="&lt;font style=&quot;font-size: 15px;&quot;&gt;ssram_&lt;/font&gt;&lt;font style=&quot;font-size: 15px;&quot;&gt;OE&lt;/font&gt;" style="text;html=1;align=left;verticalAlign=middle;resizable=0;points=[];autosize=1;strokeColor=none;fillColor=none;rotation=0;" parent="sEW1re1bT8H7BAdPNqU6-1" vertex="1">
          <mxGeometry x="1420" y="1494.7999999999997" width="90" height="30" as="geometry" />
        </mxCell>
        <mxCell id="sEW1re1bT8H7BAdPNqU6-23" style="edgeStyle=orthogonalEdgeStyle;rounded=0;orthogonalLoop=1;jettySize=auto;html=1;strokeWidth=1;exitX=0.5;exitY=0;exitDx=0;exitDy=0;entryX=0.5;entryY=1;entryDx=0;entryDy=0;" parent="sEW1re1bT8H7BAdPNqU6-1" source="sEW1re1bT8H7BAdPNqU6-36" target="sEW1re1bT8H7BAdPNqU6-70" edge="1">
          <mxGeometry relative="1" as="geometry">
            <mxPoint x="320" y="1101" as="targetPoint" />
            <mxPoint x="240" y="1057.71" as="sourcePoint" />
            <Array as="points">
              <mxPoint x="200" y="1100" />
              <mxPoint x="240" y="1100" />
            </Array>
          </mxGeometry>
        </mxCell>
        <mxCell id="sEW1re1bT8H7BAdPNqU6-24" value="" style="endArrow=classic;html=1;rounded=0;fontSize=15;" parent="sEW1re1bT8H7BAdPNqU6-1" edge="1">
          <mxGeometry width="50" height="50" relative="1" as="geometry">
            <mxPoint x="-380" y="1220" as="sourcePoint" />
            <mxPoint x="-20" y="1099.6" as="targetPoint" />
            <Array as="points">
              <mxPoint x="-20" y="1219.6" />
            </Array>
          </mxGeometry>
        </mxCell>
        <mxCell id="sEW1re1bT8H7BAdPNqU6-25" value="" style="endArrow=classic;html=1;rounded=0;fontSize=15;" parent="sEW1re1bT8H7BAdPNqU6-1" edge="1">
          <mxGeometry width="50" height="50" relative="1" as="geometry">
            <mxPoint x="-380" y="1280" as="sourcePoint" />
            <mxPoint x="20" y="1099.6" as="targetPoint" />
            <Array as="points">
              <mxPoint x="20" y="1279.6" />
            </Array>
          </mxGeometry>
        </mxCell>
        <mxCell id="sEW1re1bT8H7BAdPNqU6-27" value="48 downto 48" style="text;html=1;align=center;verticalAlign=middle;resizable=0;points=[];autosize=1;strokeColor=none;fillColor=none;" parent="sEW1re1bT8H7BAdPNqU6-1" vertex="1">
          <mxGeometry x="-174" y="1248.87" width="100" height="30" as="geometry" />
        </mxCell>
        <mxCell id="sEW1re1bT8H7BAdPNqU6-28" value="49 downto 49" style="text;html=1;align=center;verticalAlign=middle;resizable=0;points=[];autosize=1;strokeColor=none;fillColor=none;" parent="sEW1re1bT8H7BAdPNqU6-1" vertex="1">
          <mxGeometry x="-174" y="1308.87" width="100" height="30" as="geometry" />
        </mxCell>
        <mxCell id="sEW1re1bT8H7BAdPNqU6-29" style="edgeStyle=orthogonalEdgeStyle;rounded=0;orthogonalLoop=1;jettySize=auto;html=1;exitX=0.5;exitY=1;exitDx=0;exitDy=0;" parent="sEW1re1bT8H7BAdPNqU6-1" source="sEW1re1bT8H7BAdPNqU6-31" edge="1">
          <mxGeometry relative="1" as="geometry">
            <mxPoint x="40" y="480" as="targetPoint" />
          </mxGeometry>
        </mxCell>
        <mxCell id="sEW1re1bT8H7BAdPNqU6-30" style="edgeStyle=orthogonalEdgeStyle;rounded=0;orthogonalLoop=1;jettySize=auto;html=1;entryX=0;entryY=0.5;entryDx=0;entryDy=0;strokeColor=#00FF00;" parent="sEW1re1bT8H7BAdPNqU6-1" target="sEW1re1bT8H7BAdPNqU6-31" edge="1">
          <mxGeometry relative="1" as="geometry">
            <mxPoint x="240" y="289.4" as="sourcePoint" />
          </mxGeometry>
        </mxCell>
        <mxCell id="sEW1re1bT8H7BAdPNqU6-31" value="&lt;font style=&quot;font-size: 15px;&quot;&gt;READDATA: register&lt;/font&gt;" style="rounded=0;whiteSpace=wrap;html=1;direction=south;horizontal=0;" parent="sEW1re1bT8H7BAdPNqU6-1" vertex="1">
          <mxGeometry x="220" y="400" width="40" height="160" as="geometry" />
        </mxCell>
        <mxCell id="sEW1re1bT8H7BAdPNqU6-32" value="" style="triangle;whiteSpace=wrap;html=1;direction=east;" parent="sEW1re1bT8H7BAdPNqU6-1" vertex="1">
          <mxGeometry x="220" y="550" width="10" height="10" as="geometry" />
        </mxCell>
        <mxCell id="sEW1re1bT8H7BAdPNqU6-33" value="op_req" style="text;html=1;align=left;verticalAlign=middle;resizable=0;points=[];autosize=1;strokeColor=none;fillColor=none;fontSize=15;rotation=90;" parent="sEW1re1bT8H7BAdPNqU6-1" vertex="1">
          <mxGeometry x="2.000000000000007" y="1959.54" width="70" height="30" as="geometry" />
        </mxCell>
        <mxCell id="sEW1re1bT8H7BAdPNqU6-34" style="edgeStyle=orthogonalEdgeStyle;rounded=0;orthogonalLoop=1;jettySize=auto;html=1;entryX=0;entryY=0.5;entryDx=0;entryDy=0;strokeColor=#00FF00;" parent="sEW1re1bT8H7BAdPNqU6-1" target="sEW1re1bT8H7BAdPNqU6-36" edge="1">
          <mxGeometry relative="1" as="geometry">
            <mxPoint x="140" y="290" as="sourcePoint" />
          </mxGeometry>
        </mxCell>
        <mxCell id="sEW1re1bT8H7BAdPNqU6-35" style="edgeStyle=orthogonalEdgeStyle;rounded=0;orthogonalLoop=1;jettySize=auto;html=1;entryX=0.5;entryY=1;entryDx=0;entryDy=0;" parent="sEW1re1bT8H7BAdPNqU6-1" edge="1" target="sEW1re1bT8H7BAdPNqU6-36">
          <mxGeometry relative="1" as="geometry">
            <mxPoint x="120" y="1099.6" as="targetPoint" />
            <mxPoint x="-100" y="1099.6" as="sourcePoint" />
          </mxGeometry>
        </mxCell>
        <mxCell id="sEW1re1bT8H7BAdPNqU6-36" value="&lt;font style=&quot;font-size: 15px;&quot;&gt;COMMAND: register&lt;/font&gt;" style="rounded=0;whiteSpace=wrap;html=1;direction=south;horizontal=0;" parent="sEW1re1bT8H7BAdPNqU6-1" vertex="1">
          <mxGeometry x="119.5" y="1019.6" width="40" height="160" as="geometry" />
        </mxCell>
        <mxCell id="sEW1re1bT8H7BAdPNqU6-37" value="" style="triangle;whiteSpace=wrap;html=1;direction=east;" parent="sEW1re1bT8H7BAdPNqU6-1" vertex="1">
          <mxGeometry x="119.5" y="1169.6" width="10" height="10" as="geometry" />
        </mxCell>
        <mxCell id="sEW1re1bT8H7BAdPNqU6-38" style="edgeStyle=orthogonalEdgeStyle;rounded=0;orthogonalLoop=1;jettySize=auto;html=1;strokeColor=#00FF00;entryX=0.25;entryY=1;entryDx=0;entryDy=0;" parent="sEW1re1bT8H7BAdPNqU6-1" target="sEW1re1bT8H7BAdPNqU6-70" edge="1">
          <mxGeometry relative="1" as="geometry">
            <mxPoint x="320" y="290" as="sourcePoint" />
            <Array as="points">
              <mxPoint x="320" y="1030" />
            </Array>
            <mxPoint x="770" y="919.06" as="targetPoint" />
          </mxGeometry>
        </mxCell>
        <mxCell id="sEW1re1bT8H7BAdPNqU6-39" style="edgeStyle=orthogonalEdgeStyle;rounded=0;orthogonalLoop=1;jettySize=auto;html=1;endArrow=none;endFill=0;" parent="sEW1re1bT8H7BAdPNqU6-1" edge="1">
          <mxGeometry relative="1" as="geometry">
            <mxPoint x="480" y="1520" as="targetPoint" />
            <mxPoint x="480" y="1240" as="sourcePoint" />
          </mxGeometry>
        </mxCell>
        <mxCell id="sEW1re1bT8H7BAdPNqU6-40" value="" style="endArrow=none;html=1;rounded=0;endFill=0;entryX=0;entryY=0.75;entryDx=0;entryDy=0;entryPerimeter=0;startArrow=oval;startFill=1;" parent="sEW1re1bT8H7BAdPNqU6-1" target="j8gfzccHp9FTqzgJoere-8" edge="1">
          <mxGeometry width="50" height="50" relative="1" as="geometry">
            <mxPoint x="480" y="1460" as="sourcePoint" />
            <mxPoint x="780" y="1460" as="targetPoint" />
          </mxGeometry>
        </mxCell>
        <mxCell id="sEW1re1bT8H7BAdPNqU6-41" value="" style="endArrow=none;html=1;rounded=0;endFill=0;entryX=0;entryY=0.75;entryDx=0;entryDy=0;entryPerimeter=0;" parent="sEW1re1bT8H7BAdPNqU6-1" target="j8gfzccHp9FTqzgJoere-9" edge="1">
          <mxGeometry width="50" height="50" relative="1" as="geometry">
            <mxPoint x="480" y="1520" as="sourcePoint" />
            <mxPoint x="780" y="1520" as="targetPoint" />
          </mxGeometry>
        </mxCell>
        <mxCell id="sEW1re1bT8H7BAdPNqU6-42" value="" style="endArrow=classic;html=1;rounded=0;startArrow=oval;startFill=1;" parent="sEW1re1bT8H7BAdPNqU6-1" edge="1">
          <mxGeometry width="50" height="50" relative="1" as="geometry">
            <mxPoint x="480" y="1400" as="sourcePoint" />
            <mxPoint x="1060" y="1169.6" as="targetPoint" />
            <Array as="points">
              <mxPoint x="1020" y="1399.6" />
              <mxPoint x="1020" y="1169.6" />
            </Array>
          </mxGeometry>
        </mxCell>
        <mxCell id="sEW1re1bT8H7BAdPNqU6-43" value="" style="endArrow=classic;html=1;rounded=0;startArrow=oval;startFill=1;" parent="sEW1re1bT8H7BAdPNqU6-1" edge="1">
          <mxGeometry width="50" height="50" relative="1" as="geometry">
            <mxPoint x="480" y="1340" as="sourcePoint" />
            <mxPoint x="930" y="840" as="targetPoint" />
            <Array as="points">
              <mxPoint x="880" y="1340" />
              <mxPoint x="880" y="840" />
            </Array>
          </mxGeometry>
        </mxCell>
        <mxCell id="sEW1re1bT8H7BAdPNqU6-44" value="" style="endArrow=none;html=1;rounded=0;" parent="sEW1re1bT8H7BAdPNqU6-1" edge="1">
          <mxGeometry width="50" height="50" relative="1" as="geometry">
            <mxPoint x="85" y="1108.6599999999999" as="sourcePoint" />
            <mxPoint x="95" y="1088.6599999999999" as="targetPoint" />
          </mxGeometry>
        </mxCell>
        <mxCell id="sEW1re1bT8H7BAdPNqU6-45" value="50" style="text;html=1;align=center;verticalAlign=middle;resizable=0;points=[];autosize=1;strokeColor=none;fillColor=none;" parent="sEW1re1bT8H7BAdPNqU6-1" vertex="1">
          <mxGeometry x="75" y="1063.6599999999999" width="40" height="30" as="geometry" />
        </mxCell>
        <mxCell id="sEW1re1bT8H7BAdPNqU6-46" value="" style="endArrow=none;html=1;rounded=0;" parent="sEW1re1bT8H7BAdPNqU6-1" edge="1">
          <mxGeometry width="50" height="50" relative="1" as="geometry">
            <mxPoint x="470" y="1284.06" as="sourcePoint" />
            <mxPoint x="490" y="1274.06" as="targetPoint" />
          </mxGeometry>
        </mxCell>
        <mxCell id="sEW1re1bT8H7BAdPNqU6-47" value="50" style="text;html=1;align=center;verticalAlign=middle;resizable=0;points=[];autosize=1;strokeColor=none;fillColor=none;" parent="sEW1re1bT8H7BAdPNqU6-1" vertex="1">
          <mxGeometry x="485" y="1259.06" width="40" height="30" as="geometry" />
        </mxCell>
        <mxCell id="sEW1re1bT8H7BAdPNqU6-48" value="&lt;font style=&quot;font-size: 12px;&quot;&gt;31 downto 0&lt;/font&gt;" style="text;html=1;align=center;verticalAlign=middle;resizable=0;points=[];autosize=1;strokeColor=none;fillColor=none;fontSize=15;" parent="sEW1re1bT8H7BAdPNqU6-1" vertex="1">
          <mxGeometry x="485" y="1375" width="90" height="30" as="geometry" />
        </mxCell>
        <mxCell id="sEW1re1bT8H7BAdPNqU6-49" value="&lt;font style=&quot;font-size: 12px;&quot;&gt;47 downto 32&lt;/font&gt;" style="text;html=1;align=center;verticalAlign=middle;resizable=0;points=[];autosize=1;strokeColor=none;fillColor=none;fontSize=15;" parent="sEW1re1bT8H7BAdPNqU6-1" vertex="1">
          <mxGeometry x="480" y="1313.87" width="100" height="30" as="geometry" />
        </mxCell>
        <mxCell id="sEW1re1bT8H7BAdPNqU6-50" value="48 downto 48" style="text;html=1;align=center;verticalAlign=middle;resizable=0;points=[];autosize=1;strokeColor=none;fillColor=none;" parent="sEW1re1bT8H7BAdPNqU6-1" vertex="1">
          <mxGeometry x="480" y="1496.24" width="100" height="30" as="geometry" />
        </mxCell>
        <mxCell id="sEW1re1bT8H7BAdPNqU6-51" value="49 downto 49" style="text;html=1;align=center;verticalAlign=middle;resizable=0;points=[];autosize=1;strokeColor=none;fillColor=none;" parent="sEW1re1bT8H7BAdPNqU6-1" vertex="1">
          <mxGeometry x="480" y="1436.24" width="100" height="30" as="geometry" />
        </mxCell>
        <mxCell id="sEW1re1bT8H7BAdPNqU6-52" value="" style="endArrow=classic;html=1;rounded=0;strokeColor=#00FF00;endFill=1;" parent="sEW1re1bT8H7BAdPNqU6-1" edge="1">
          <mxGeometry width="50" height="50" relative="1" as="geometry">
            <mxPoint x="-160.5" y="290" as="sourcePoint" />
            <mxPoint x="-160.5" y="460" as="targetPoint" />
          </mxGeometry>
        </mxCell>
        <mxCell id="sEW1re1bT8H7BAdPNqU6-53" value="waitrequest" style="text;html=1;align=left;verticalAlign=middle;resizable=0;points=[];autosize=1;strokeColor=none;fillColor=none;fontSize=15;rotation=-90;" parent="sEW1re1bT8H7BAdPNqU6-1" vertex="1">
          <mxGeometry x="-210" y="204.39999999999998" width="100" height="30" as="geometry" />
        </mxCell>
        <mxCell id="sEW1re1bT8H7BAdPNqU6-54" value="command_enable" style="text;html=1;align=left;verticalAlign=middle;resizable=0;points=[];autosize=1;strokeColor=none;fillColor=none;fontSize=15;rotation=-90;" parent="sEW1re1bT8H7BAdPNqU6-1" vertex="1">
          <mxGeometry x="70" y="184" width="140" height="30" as="geometry" />
        </mxCell>
        <mxCell id="sEW1re1bT8H7BAdPNqU6-55" value="readdata_enable" style="text;html=1;align=left;verticalAlign=middle;resizable=0;points=[];autosize=1;strokeColor=none;fillColor=none;fontSize=15;rotation=-90;" parent="sEW1re1bT8H7BAdPNqU6-1" vertex="1">
          <mxGeometry x="170.5" y="184.39999999999998" width="140" height="30" as="geometry" />
        </mxCell>
        <mxCell id="sEW1re1bT8H7BAdPNqU6-56" value="fifo4_push" style="text;html=1;align=left;verticalAlign=middle;resizable=0;points=[];autosize=1;strokeColor=none;fillColor=none;fontSize=15;rotation=-90;" parent="sEW1re1bT8H7BAdPNqU6-1" vertex="1">
          <mxGeometry x="275" y="207.39999999999998" width="90" height="30" as="geometry" />
        </mxCell>
        <mxCell id="sEW1re1bT8H7BAdPNqU6-57" value="&lt;div&gt;mem_validout&lt;/div&gt;" style="text;html=1;align=left;verticalAlign=middle;resizable=0;points=[];autosize=1;strokeColor=none;fillColor=none;fontSize=15;rotation=90;" parent="sEW1re1bT8H7BAdPNqU6-1" vertex="1">
          <mxGeometry x="1220" y="1984.94" width="120" height="30" as="geometry" />
        </mxCell>
        <mxCell id="sEW1re1bT8H7BAdPNqU6-58" style="edgeStyle=orthogonalEdgeStyle;rounded=0;orthogonalLoop=1;jettySize=auto;html=1;exitX=0;exitY=0.25;exitDx=0;exitDy=0;exitPerimeter=0;endArrow=oval;endFill=1;" parent="sEW1re1bT8H7BAdPNqU6-1" source="sEW1re1bT8H7BAdPNqU6-68" edge="1">
          <mxGeometry relative="1" as="geometry">
            <mxPoint x="60" y="1339.6" as="targetPoint" />
            <Array as="points">
              <mxPoint x="50" y="1400" />
              <mxPoint x="60" y="1400" />
            </Array>
            <mxPoint x="49.99500000000012" y="1386.475" as="sourcePoint" />
          </mxGeometry>
        </mxCell>
        <mxCell id="sEW1re1bT8H7BAdPNqU6-59" style="edgeStyle=orthogonalEdgeStyle;rounded=0;orthogonalLoop=1;jettySize=auto;html=1;exitX=0;exitY=0.75;exitDx=0;exitDy=0;exitPerimeter=0;endArrow=oval;endFill=1;" parent="sEW1re1bT8H7BAdPNqU6-1" source="sEW1re1bT8H7BAdPNqU6-68" edge="1">
          <mxGeometry relative="1" as="geometry">
            <mxPoint x="20" y="1279.6" as="targetPoint" />
            <Array as="points">
              <mxPoint x="30" y="1400" />
              <mxPoint x="20" y="1400" />
            </Array>
            <mxPoint x="29.99500000000011" y="1386.475" as="sourcePoint" />
          </mxGeometry>
        </mxCell>
        <mxCell id="sEW1re1bT8H7BAdPNqU6-60" style="edgeStyle=orthogonalEdgeStyle;rounded=0;orthogonalLoop=1;jettySize=auto;html=1;exitX=1;exitY=0.5;exitDx=0;exitDy=0;exitPerimeter=0;strokeColor=#FF0000;" parent="sEW1re1bT8H7BAdPNqU6-1" source="sEW1re1bT8H7BAdPNqU6-68" edge="1">
          <mxGeometry relative="1" as="geometry">
            <mxPoint x="40" y="1920" as="targetPoint" />
            <mxPoint x="39.99500000000011" y="1032.935" as="sourcePoint" />
          </mxGeometry>
        </mxCell>
        <mxCell id="sEW1re1bT8H7BAdPNqU6-61" value="&lt;font style=&quot;font-size: 15px;&quot;&gt;ssram_&lt;/font&gt;&lt;font style=&quot;font-size: 15px;&quot;&gt;busy&lt;/font&gt;" style="text;html=1;align=left;verticalAlign=middle;resizable=0;points=[];autosize=1;strokeColor=none;fillColor=none;" parent="sEW1re1bT8H7BAdPNqU6-1" vertex="1">
          <mxGeometry x="1419" y="1694.94" width="100" height="30" as="geometry" />
        </mxCell>
        <mxCell id="sEW1re1bT8H7BAdPNqU6-62" style="edgeStyle=orthogonalEdgeStyle;rounded=0;orthogonalLoop=1;jettySize=auto;html=1;strokeColor=#FF0000;endArrow=block;endFill=1;" parent="sEW1re1bT8H7BAdPNqU6-1" edge="1">
          <mxGeometry relative="1" as="geometry">
            <mxPoint x="680" y="1920" as="targetPoint" />
            <mxPoint x="680" y="1709.94" as="sourcePoint" />
            <Array as="points">
              <mxPoint x="680" y="1839.94" />
              <mxPoint x="680" y="1839.94" />
            </Array>
          </mxGeometry>
        </mxCell>
        <mxCell id="sEW1re1bT8H7BAdPNqU6-63" value="" style="endArrow=none;html=1;rounded=0;endFill=0;startArrow=classic;startFill=1;" parent="sEW1re1bT8H7BAdPNqU6-1" edge="1">
          <mxGeometry width="50" height="50" relative="1" as="geometry">
            <mxPoint x="1280" y="1770" as="sourcePoint" />
            <mxPoint x="1400" y="1770" as="targetPoint" />
          </mxGeometry>
        </mxCell>
        <mxCell id="sEW1re1bT8H7BAdPNqU6-64" value="" style="endArrow=none;html=1;rounded=0;endFill=0;" parent="sEW1re1bT8H7BAdPNqU6-1" edge="1">
          <mxGeometry width="50" height="50" relative="1" as="geometry">
            <mxPoint x="1400" y="1710" as="sourcePoint" />
            <mxPoint x="679" y="1709.94" as="targetPoint" />
            <Array as="points" />
          </mxGeometry>
        </mxCell>
        <mxCell id="sEW1re1bT8H7BAdPNqU6-68" value="" style="verticalLabelPosition=bottom;shadow=0;dashed=0;align=center;html=1;verticalAlign=top;shape=mxgraph.electrical.logic_gates.logic_gate;operation=or;direction=south;aspect=fixed;" parent="sEW1re1bT8H7BAdPNqU6-1" vertex="1">
          <mxGeometry x="20.620000000000005" y="1456.23" width="38.75" height="64.58" as="geometry" />
        </mxCell>
        <mxCell id="sEW1re1bT8H7BAdPNqU6-69" style="edgeStyle=orthogonalEdgeStyle;rounded=0;orthogonalLoop=1;jettySize=auto;html=1;exitX=0.75;exitY=1;exitDx=0;exitDy=0;strokeColor=#FF0000;" parent="sEW1re1bT8H7BAdPNqU6-1" source="sEW1re1bT8H7BAdPNqU6-70" edge="1">
          <mxGeometry relative="1" as="geometry">
            <mxPoint x="320" y="1920" as="targetPoint" />
          </mxGeometry>
        </mxCell>
        <mxCell id="sEW1re1bT8H7BAdPNqU6-70" value="" style="rounded=0;whiteSpace=wrap;html=1;direction=south;horizontal=1;" parent="sEW1re1bT8H7BAdPNqU6-1" vertex="1">
          <mxGeometry x="360" y="959.83" width="240" height="280" as="geometry" />
        </mxCell>
        <mxCell id="sEW1re1bT8H7BAdPNqU6-71" value="&lt;font style=&quot;font-size: 15px;&quot;&gt;fifo4_push&lt;/font&gt;" style="text;html=1;align=left;verticalAlign=middle;resizable=0;points=[];autosize=1;strokeColor=none;fillColor=none;" parent="sEW1re1bT8H7BAdPNqU6-1" vertex="1">
          <mxGeometry x="366" y="1016.0599999999998" width="90" height="30" as="geometry" />
        </mxCell>
        <mxCell id="sEW1re1bT8H7BAdPNqU6-72" value="&lt;font style=&quot;font-size: 15px;&quot;&gt;LOCAL_FIFO: fifo4&lt;/font&gt;" style="rounded=0;whiteSpace=wrap;html=1;" parent="sEW1re1bT8H7BAdPNqU6-1" vertex="1">
          <mxGeometry x="360" y="940" width="240" height="39.54" as="geometry" />
        </mxCell>
        <mxCell id="sEW1re1bT8H7BAdPNqU6-73" value="&lt;font style=&quot;font-size: 15px;&quot;&gt;fifo4_in&lt;/font&gt;" style="text;html=1;align=left;verticalAlign=middle;resizable=0;points=[];autosize=1;strokeColor=none;fillColor=none;" parent="sEW1re1bT8H7BAdPNqU6-1" vertex="1">
          <mxGeometry x="366" y="1086.1799999999998" width="70" height="30" as="geometry" />
        </mxCell>
        <mxCell id="sEW1re1bT8H7BAdPNqU6-74" value="&lt;font style=&quot;font-size: 15px;&quot;&gt;fifo4_out&lt;/font&gt;" style="text;html=1;align=center;verticalAlign=middle;resizable=0;points=[];autosize=1;strokeColor=none;fillColor=none;" parent="sEW1re1bT8H7BAdPNqU6-1" vertex="1">
          <mxGeometry x="440" y="1209.71" width="80" height="30" as="geometry" />
        </mxCell>
        <mxCell id="sEW1re1bT8H7BAdPNqU6-75" value="&lt;font style=&quot;font-size: 15px;&quot;&gt;fifo4_almost_full&lt;/font&gt;" style="text;html=1;align=left;verticalAlign=middle;resizable=0;points=[];autosize=1;strokeColor=none;fillColor=none;" parent="sEW1re1bT8H7BAdPNqU6-1" vertex="1">
          <mxGeometry x="366" y="1156.06" width="130" height="30" as="geometry" />
        </mxCell>
        <mxCell id="sEW1re1bT8H7BAdPNqU6-76" value="fifo4_almost_full" style="text;html=1;align=left;verticalAlign=middle;resizable=0;points=[];autosize=1;strokeColor=none;fillColor=none;fontSize=15;rotation=90;" parent="sEW1re1bT8H7BAdPNqU6-1" vertex="1">
          <mxGeometry x="253" y="1989.94" width="130" height="30" as="geometry" />
        </mxCell>
        <mxCell id="sEW1re1bT8H7BAdPNqU6-77" style="edgeStyle=orthogonalEdgeStyle;rounded=0;orthogonalLoop=1;jettySize=auto;html=1;strokeColor=#00FF00;" parent="sEW1re1bT8H7BAdPNqU6-1" edge="1">
          <mxGeometry relative="1" as="geometry">
            <mxPoint x="600" y="1031" as="targetPoint" />
            <mxPoint x="720" y="290" as="sourcePoint" />
            <Array as="points">
              <mxPoint x="720" y="1031" />
            </Array>
          </mxGeometry>
        </mxCell>
        <mxCell id="sEW1re1bT8H7BAdPNqU6-79" value="&lt;font style=&quot;font-size: 15px;&quot;&gt;fifo4_pop&lt;/font&gt;" style="text;html=1;align=right;verticalAlign=middle;resizable=0;points=[];autosize=1;strokeColor=none;fillColor=none;" parent="sEW1re1bT8H7BAdPNqU6-1" vertex="1">
          <mxGeometry x="505" y="1016.06" width="90" height="30" as="geometry" />
        </mxCell>
        <mxCell id="sEW1re1bT8H7BAdPNqU6-80" value="&lt;font style=&quot;font-size: 15px;&quot;&gt;fifo4_empty&lt;/font&gt;" style="text;html=1;align=right;verticalAlign=middle;resizable=0;points=[];autosize=1;strokeColor=none;fillColor=none;" parent="sEW1re1bT8H7BAdPNqU6-1" vertex="1">
          <mxGeometry x="495" y="1156.06" width="100" height="30" as="geometry" />
        </mxCell>
        <mxCell id="sEW1re1bT8H7BAdPNqU6-81" style="edgeStyle=orthogonalEdgeStyle;rounded=0;orthogonalLoop=1;jettySize=auto;html=1;startArrow=oval;startFill=1;entryX=0;entryY=0.5;entryDx=0;entryDy=0;" parent="sEW1re1bT8H7BAdPNqU6-1" target="sEW1re1bT8H7BAdPNqU6-83" edge="1">
          <mxGeometry relative="1" as="geometry">
            <mxPoint x="40" y="1699.94" as="sourcePoint" />
            <Array as="points">
              <mxPoint x="-62" y="1699.94" />
            </Array>
            <mxPoint x="140" y="1749.94" as="targetPoint" />
          </mxGeometry>
        </mxCell>
        <mxCell id="sEW1re1bT8H7BAdPNqU6-82" style="edgeStyle=orthogonalEdgeStyle;rounded=0;orthogonalLoop=1;jettySize=auto;html=1;exitX=1;exitY=0.5;exitDx=0;exitDy=0;strokeColor=#FF0000;" parent="sEW1re1bT8H7BAdPNqU6-1" source="sEW1re1bT8H7BAdPNqU6-83" edge="1">
          <mxGeometry relative="1" as="geometry">
            <mxPoint x="-62" y="1920" as="targetPoint" />
            <Array as="points">
              <mxPoint x="-62" y="1829.94" />
              <mxPoint x="-62" y="1829.94" />
            </Array>
          </mxGeometry>
        </mxCell>
        <mxCell id="sEW1re1bT8H7BAdPNqU6-83" value="&lt;font style=&quot;font-size: 15px;&quot;&gt;POR: d_flip_flop&lt;/font&gt;" style="rounded=0;whiteSpace=wrap;html=1;direction=south;horizontal=1;" parent="sEW1re1bT8H7BAdPNqU6-1" vertex="1">
          <mxGeometry x="-122" y="1779.94" width="120" height="40" as="geometry" />
        </mxCell>
        <mxCell id="sEW1re1bT8H7BAdPNqU6-84" value="" style="triangle;whiteSpace=wrap;html=1;direction=east;" parent="sEW1re1bT8H7BAdPNqU6-1" vertex="1">
          <mxGeometry x="-122" y="1809.94" width="10" height="10" as="geometry" />
        </mxCell>
        <mxCell id="sEW1re1bT8H7BAdPNqU6-85" value="previous_op_req" style="text;html=1;align=left;verticalAlign=middle;resizable=0;points=[];autosize=1;strokeColor=none;fillColor=none;fontSize=15;rotation=90;" parent="sEW1re1bT8H7BAdPNqU6-1" vertex="1">
          <mxGeometry x="-127" y="1989.94" width="130" height="30" as="geometry" />
        </mxCell>
        <mxCell id="sEW1re1bT8H7BAdPNqU6-86" value="" style="triangle;whiteSpace=wrap;html=1;direction=east;" parent="sEW1re1bT8H7BAdPNqU6-1" vertex="1">
          <mxGeometry x="360" y="1229.83" width="10" height="10" as="geometry" />
        </mxCell>
        <mxCell id="sEW1re1bT8H7BAdPNqU6-87" value="&lt;font style=&quot;font-size: 15px;&quot;&gt;fifo4_full&lt;/font&gt;" style="text;html=1;align=right;verticalAlign=middle;resizable=0;points=[];autosize=1;strokeColor=none;fillColor=none;" parent="sEW1re1bT8H7BAdPNqU6-1" vertex="1">
          <mxGeometry x="515" y="1086.1799999999998" width="80" height="30" as="geometry" />
        </mxCell>
        <mxCell id="sEW1re1bT8H7BAdPNqU6-88" style="edgeStyle=orthogonalEdgeStyle;rounded=0;orthogonalLoop=1;jettySize=auto;html=1;exitX=0.75;exitY=1;exitDx=0;exitDy=0;strokeColor=default;endArrow=none;endFill=0;" parent="sEW1re1bT8H7BAdPNqU6-1" edge="1">
          <mxGeometry relative="1" as="geometry">
            <mxPoint x="640" y="1730" as="targetPoint" />
            <mxPoint x="600" y="1171.06" as="sourcePoint" />
          </mxGeometry>
        </mxCell>
        <mxCell id="sEW1re1bT8H7BAdPNqU6-89" value="fifo4_full" style="text;html=1;align=left;verticalAlign=middle;resizable=0;points=[];autosize=1;strokeColor=none;fillColor=none;fontSize=15;rotation=90;" parent="sEW1re1bT8H7BAdPNqU6-1" vertex="1">
          <mxGeometry x="679" y="1964.94" width="80" height="30" as="geometry" />
        </mxCell>
        <mxCell id="sEW1re1bT8H7BAdPNqU6-92" value="" style="endArrow=classic;html=1;rounded=0;fontSize=15;" parent="sEW1re1bT8H7BAdPNqU6-1" edge="1">
          <mxGeometry width="50" height="50" relative="1" as="geometry">
            <mxPoint x="239" y="1639.94" as="sourcePoint" />
            <mxPoint x="1400" y="1640" as="targetPoint" />
            <Array as="points" />
          </mxGeometry>
        </mxCell>
        <mxCell id="sEW1re1bT8H7BAdPNqU6-93" value="&lt;font style=&quot;font-size: 15px;&quot;&gt;ssram_clear_n&lt;/font&gt;" style="text;html=1;align=left;verticalAlign=middle;resizable=0;points=[];autosize=1;strokeColor=none;fillColor=none;" parent="sEW1re1bT8H7BAdPNqU6-1" vertex="1">
          <mxGeometry x="1417" y="1625.9999999999998" width="120" height="30" as="geometry" />
        </mxCell>
        <mxCell id="sEW1re1bT8H7BAdPNqU6-94" value="&lt;font style=&quot;font-size: 15px;&quot;&gt;rst_n&lt;/font&gt;" style="text;html=1;align=right;verticalAlign=middle;resizable=0;points=[];autosize=1;strokeColor=none;fillColor=none;" parent="sEW1re1bT8H7BAdPNqU6-1" vertex="1">
          <mxGeometry x="-460" y="1625" width="60" height="30" as="geometry" />
        </mxCell>
        <mxCell id="sEW1re1bT8H7BAdPNqU6-95" style="edgeStyle=orthogonalEdgeStyle;rounded=0;orthogonalLoop=1;jettySize=auto;html=1;strokeColor=#FF0000;" parent="sEW1re1bT8H7BAdPNqU6-1" edge="1">
          <mxGeometry relative="1" as="geometry">
            <mxPoint x="240" y="1920" as="targetPoint" />
            <mxPoint x="239" y="1639.94" as="sourcePoint" />
          </mxGeometry>
        </mxCell>
        <mxCell id="sEW1re1bT8H7BAdPNqU6-96" value="&lt;font style=&quot;font-size: 15px;&quot;&gt;rst_n&lt;/font&gt;" style="text;html=1;align=left;verticalAlign=middle;resizable=0;points=[];autosize=1;strokeColor=none;fillColor=none;rotation=90;" parent="sEW1re1bT8H7BAdPNqU6-1" vertex="1">
          <mxGeometry x="209" y="1954.94" width="60" height="30" as="geometry" />
        </mxCell>
        <mxCell id="j8gfzccHp9FTqzgJoere-0" value="&lt;div&gt;fifo4_pop&lt;/div&gt;" style="text;html=1;align=left;verticalAlign=middle;resizable=0;points=[];autosize=1;strokeColor=none;fillColor=none;fontSize=15;rotation=-90;" parent="sEW1re1bT8H7BAdPNqU6-1" vertex="1">
          <mxGeometry x="674" y="207.39999999999998" width="90" height="30" as="geometry" />
        </mxCell>
        <mxCell id="j8gfzccHp9FTqzgJoere-4" style="edgeStyle=orthogonalEdgeStyle;rounded=0;orthogonalLoop=1;jettySize=auto;html=1;exitX=1;exitY=0.5;exitDx=0;exitDy=0;strokeColor=#FF0000;" parent="sEW1re1bT8H7BAdPNqU6-1" edge="1">
          <mxGeometry relative="1" as="geometry">
            <mxPoint x="1280" y="1920" as="targetPoint" />
            <mxPoint x="1280" y="1769.94" as="sourcePoint" />
          </mxGeometry>
        </mxCell>
        <mxCell id="j8gfzccHp9FTqzgJoere-6" style="edgeStyle=orthogonalEdgeStyle;rounded=0;orthogonalLoop=1;jettySize=auto;html=1;strokeColor=#FF0000;exitX=0.5;exitY=0;exitDx=0;exitDy=0;" parent="sEW1re1bT8H7BAdPNqU6-1" source="sEW1re1bT8H7BAdPNqU6-70" edge="1">
          <mxGeometry relative="1" as="geometry">
            <mxPoint x="720" y="1920" as="targetPoint" />
            <mxPoint x="720" y="1100" as="sourcePoint" />
            <Array as="points">
              <mxPoint x="720" y="1100" />
            </Array>
          </mxGeometry>
        </mxCell>
        <mxCell id="j8gfzccHp9FTqzgJoere-10" style="edgeStyle=orthogonalEdgeStyle;rounded=0;orthogonalLoop=1;jettySize=auto;html=1;exitX=1;exitY=0.5;exitDx=0;exitDy=0;exitPerimeter=0;" parent="sEW1re1bT8H7BAdPNqU6-1" source="IWrfuLK2k04X4sjMVZR2-25" edge="1">
          <mxGeometry relative="1" as="geometry">
            <mxPoint x="1400" y="1440" as="targetPoint" />
          </mxGeometry>
        </mxCell>
        <mxCell id="IWrfuLK2k04X4sjMVZR2-26" style="edgeStyle=orthogonalEdgeStyle;rounded=0;orthogonalLoop=1;jettySize=auto;html=1;exitX=1;exitY=0.5;exitDx=0;exitDy=0;exitPerimeter=0;entryX=0;entryY=0.75;entryDx=0;entryDy=0;entryPerimeter=0;endArrow=none;endFill=0;" edge="1" parent="sEW1re1bT8H7BAdPNqU6-1" source="j8gfzccHp9FTqzgJoere-8" target="IWrfuLK2k04X4sjMVZR2-25">
          <mxGeometry relative="1" as="geometry" />
        </mxCell>
        <mxCell id="j8gfzccHp9FTqzgJoere-8" value="" style="verticalLabelPosition=bottom;shadow=0;dashed=0;align=center;html=1;verticalAlign=top;shape=mxgraph.electrical.logic_gates.logic_gate;operation=and;aspect=fixed;" parent="sEW1re1bT8H7BAdPNqU6-1" vertex="1">
          <mxGeometry x="1206" y="1429.5" width="68" height="40.8" as="geometry" />
        </mxCell>
        <mxCell id="j8gfzccHp9FTqzgJoere-11" style="edgeStyle=orthogonalEdgeStyle;rounded=0;orthogonalLoop=1;jettySize=auto;html=1;exitX=1;exitY=0.5;exitDx=0;exitDy=0;exitPerimeter=0;" parent="sEW1re1bT8H7BAdPNqU6-1" source="j8gfzccHp9FTqzgJoere-9" edge="1">
          <mxGeometry relative="1" as="geometry">
            <mxPoint x="1400" y="1510" as="targetPoint" />
          </mxGeometry>
        </mxCell>
        <mxCell id="j8gfzccHp9FTqzgJoere-9" value="" style="verticalLabelPosition=bottom;shadow=0;dashed=0;align=center;html=1;verticalAlign=top;shape=mxgraph.electrical.logic_gates.logic_gate;operation=and;aspect=fixed;" parent="sEW1re1bT8H7BAdPNqU6-1" vertex="1">
          <mxGeometry x="1206" y="1490" width="66" height="39.6" as="geometry" />
        </mxCell>
        <mxCell id="j8gfzccHp9FTqzgJoere-12" value="" style="endArrow=none;html=1;rounded=0;strokeColor=#00FF00;endFill=0;" parent="sEW1re1bT8H7BAdPNqU6-1" edge="1">
          <mxGeometry width="50" height="50" relative="1" as="geometry">
            <mxPoint x="1180" y="289.64" as="sourcePoint" />
            <mxPoint x="1180" y="1499.64" as="targetPoint" />
            <Array as="points" />
          </mxGeometry>
        </mxCell>
        <mxCell id="j8gfzccHp9FTqzgJoere-15" value="mem_enable" style="text;html=1;align=left;verticalAlign=middle;resizable=0;points=[];autosize=1;strokeColor=none;fillColor=none;fontSize=15;rotation=-90;" parent="sEW1re1bT8H7BAdPNqU6-1" vertex="1">
          <mxGeometry x="1126" y="199.39999999999998" width="110" height="30" as="geometry" />
        </mxCell>
        <mxCell id="SsDwVWjRS5oo4IcVt-Av-12" style="edgeStyle=orthogonalEdgeStyle;rounded=0;orthogonalLoop=1;jettySize=auto;html=1;exitX=1;exitY=0.5;exitDx=0;exitDy=0;strokeColor=#FF0000;" parent="sEW1re1bT8H7BAdPNqU6-1" source="y18PiPNjaMMR5-67PPyS-3" edge="1">
          <mxGeometry relative="1" as="geometry">
            <mxPoint x="419" y="1920" as="targetPoint" />
          </mxGeometry>
        </mxCell>
        <mxCell id="y18PiPNjaMMR5-67PPyS-3" value="&lt;font style=&quot;font-size: 15px;&quot;&gt;TGL: t_flip_flop&lt;/font&gt;" style="rounded=0;whiteSpace=wrap;html=1;direction=south;horizontal=1;" parent="sEW1re1bT8H7BAdPNqU6-1" vertex="1">
          <mxGeometry x="359" y="1779.94" width="120" height="40" as="geometry" />
        </mxCell>
        <mxCell id="y18PiPNjaMMR5-67PPyS-4" value="" style="triangle;whiteSpace=wrap;html=1;direction=east;" parent="sEW1re1bT8H7BAdPNqU6-1" vertex="1">
          <mxGeometry x="359" y="1809.94" width="10" height="10" as="geometry" />
        </mxCell>
        <mxCell id="UglZDZvS_yIDq9xwYuGM-1" style="edgeStyle=orthogonalEdgeStyle;rounded=0;orthogonalLoop=1;jettySize=auto;html=1;exitX=1;exitY=0.5;exitDx=0;exitDy=0;exitPerimeter=0;entryX=0;entryY=0.5;entryDx=0;entryDy=0;" parent="sEW1re1bT8H7BAdPNqU6-1" source="UglZDZvS_yIDq9xwYuGM-0" target="y18PiPNjaMMR5-67PPyS-3" edge="1">
          <mxGeometry relative="1" as="geometry" />
        </mxCell>
        <mxCell id="SsDwVWjRS5oo4IcVt-Av-9" style="edgeStyle=orthogonalEdgeStyle;rounded=0;orthogonalLoop=1;jettySize=auto;html=1;exitX=0;exitY=0.75;exitDx=0;exitDy=0;exitPerimeter=0;endArrow=oval;endFill=1;" parent="sEW1re1bT8H7BAdPNqU6-1" source="UglZDZvS_yIDq9xwYuGM-0" edge="1">
          <mxGeometry relative="1" as="geometry">
            <mxPoint x="680" y="1710" as="targetPoint" />
          </mxGeometry>
        </mxCell>
        <mxCell id="UglZDZvS_yIDq9xwYuGM-0" value="" style="verticalLabelPosition=bottom;shadow=0;dashed=0;align=center;html=1;verticalAlign=top;shape=mxgraph.electrical.logic_gates.logic_gate;operation=or;negating=1;negSize=0.15;direction=west;aspect=fixed;" parent="sEW1re1bT8H7BAdPNqU6-1" vertex="1">
          <mxGeometry x="504" y="1700.3400000000001" width="66" height="39.6" as="geometry" />
        </mxCell>
        <mxCell id="UglZDZvS_yIDq9xwYuGM-7" value="" style="endArrow=oval;html=1;rounded=0;endFill=1;" parent="sEW1re1bT8H7BAdPNqU6-1" edge="1">
          <mxGeometry width="50" height="50" relative="1" as="geometry">
            <mxPoint x="-381" y="1639.94" as="sourcePoint" />
            <mxPoint x="239" y="1639.94" as="targetPoint" />
          </mxGeometry>
        </mxCell>
        <mxCell id="SsDwVWjRS5oo4IcVt-Av-10" style="edgeStyle=orthogonalEdgeStyle;rounded=0;orthogonalLoop=1;jettySize=auto;html=1;strokeColor=#FF0000;endArrow=block;endFill=1;" parent="sEW1re1bT8H7BAdPNqU6-1" edge="1">
          <mxGeometry relative="1" as="geometry">
            <mxPoint x="640" y="1920" as="targetPoint" />
            <mxPoint x="640" y="1730" as="sourcePoint" />
            <Array as="points">
              <mxPoint x="640" y="1830" />
              <mxPoint x="640" y="1830" />
            </Array>
          </mxGeometry>
        </mxCell>
        <mxCell id="SsDwVWjRS5oo4IcVt-Av-11" style="edgeStyle=orthogonalEdgeStyle;rounded=0;orthogonalLoop=1;jettySize=auto;html=1;exitX=0;exitY=0.25;exitDx=0;exitDy=0;exitPerimeter=0;endArrow=oval;endFill=1;" parent="sEW1re1bT8H7BAdPNqU6-1" edge="1">
          <mxGeometry relative="1" as="geometry">
            <mxPoint x="640" y="1730" as="targetPoint" />
            <mxPoint x="569" y="1729.94" as="sourcePoint" />
            <Array as="points">
              <mxPoint x="638" y="1729.94" />
            </Array>
          </mxGeometry>
        </mxCell>
        <mxCell id="SsDwVWjRS5oo4IcVt-Av-13" value="mem_busy" style="text;html=1;align=left;verticalAlign=middle;resizable=0;points=[];autosize=1;strokeColor=none;fillColor=none;fontSize=15;rotation=90;" parent="sEW1re1bT8H7BAdPNqU6-1" vertex="1">
          <mxGeometry x="629" y="1974.94" width="100" height="30" as="geometry" />
        </mxCell>
        <mxCell id="SsDwVWjRS5oo4IcVt-Av-14" value="fifo4_empty" style="text;html=1;align=left;verticalAlign=middle;resizable=0;points=[];autosize=1;strokeColor=none;fillColor=none;fontSize=15;rotation=90;" parent="sEW1re1bT8H7BAdPNqU6-1" vertex="1">
          <mxGeometry x="589" y="1974.94" width="100" height="30" as="geometry" />
        </mxCell>
        <mxCell id="SsDwVWjRS5oo4IcVt-Av-15" value="mem_avail" style="text;html=1;align=left;verticalAlign=middle;resizable=0;points=[];autosize=1;strokeColor=none;fillColor=none;fontSize=15;rotation=90;" parent="sEW1re1bT8H7BAdPNqU6-1" vertex="1">
          <mxGeometry x="369" y="1974.94" width="100" height="30" as="geometry" />
        </mxCell>
        <mxCell id="k7Nxoc6H9XNy4a2hcRnU-18" style="edgeStyle=orthogonalEdgeStyle;rounded=0;orthogonalLoop=1;jettySize=auto;html=1;exitX=0;exitY=0.25;exitDx=0;exitDy=0;exitPerimeter=0;endArrow=oval;endFill=1;" edge="1" parent="sEW1re1bT8H7BAdPNqU6-1" source="k7Nxoc6H9XNy4a2hcRnU-7">
          <mxGeometry relative="1" as="geometry">
            <mxPoint x="-260.5" y="1160" as="targetPoint" />
          </mxGeometry>
        </mxCell>
        <mxCell id="k7Nxoc6H9XNy4a2hcRnU-7" value="" style="verticalLabelPosition=bottom;shadow=0;dashed=0;align=center;html=1;verticalAlign=top;shape=mxgraph.electrical.logic_gates.logic_gate;operation=and;negating=1;negSize=0.15;direction=south;" vertex="1" parent="sEW1re1bT8H7BAdPNqU6-1">
          <mxGeometry x="-320" y="1520.81" width="80" height="59.19" as="geometry" />
        </mxCell>
        <mxCell id="k7Nxoc6H9XNy4a2hcRnU-19" style="edgeStyle=orthogonalEdgeStyle;rounded=0;orthogonalLoop=1;jettySize=auto;html=1;endArrow=none;endFill=0;exitX=0;exitY=0.5;exitDx=0;exitDy=0;exitPerimeter=0;" edge="1" parent="sEW1re1bT8H7BAdPNqU6-1" source="k7Nxoc6H9XNy4a2hcRnU-20">
          <mxGeometry relative="1" as="geometry">
            <mxPoint x="-260" y="1400" as="targetPoint" />
            <mxPoint x="-300" y="1451" as="sourcePoint" />
            <Array as="points">
              <mxPoint x="-300" y="1400" />
            </Array>
          </mxGeometry>
        </mxCell>
        <mxCell id="k7Nxoc6H9XNy4a2hcRnU-13" value="&lt;font style=&quot;font-size: 12px;&quot;&gt;30 downto 0&lt;/font&gt;" style="text;html=1;align=center;verticalAlign=middle;resizable=0;points=[];autosize=1;strokeColor=none;fillColor=none;fontSize=15;rotation=-90;" vertex="1" parent="sEW1re1bT8H7BAdPNqU6-1">
          <mxGeometry x="-314" y="1436.24" width="90" height="30" as="geometry" />
        </mxCell>
        <mxCell id="k7Nxoc6H9XNy4a2hcRnU-14" value="&lt;font style=&quot;font-size: 12px;&quot;&gt;31 downto 31&lt;br&gt;&lt;/font&gt;" style="text;html=1;align=center;verticalAlign=middle;resizable=0;points=[];autosize=1;strokeColor=none;fillColor=none;fontSize=15;rotation=-90;" vertex="1" parent="sEW1re1bT8H7BAdPNqU6-1">
          <mxGeometry x="-360" y="1436.24" width="100" height="30" as="geometry" />
        </mxCell>
        <mxCell id="k7Nxoc6H9XNy4a2hcRnU-20" value="" style="verticalLabelPosition=bottom;shadow=0;dashed=0;align=center;html=1;verticalAlign=top;shape=mxgraph.electrical.logic_gates.inverter_2;direction=south;aspect=fixed;" vertex="1" parent="sEW1re1bT8H7BAdPNqU6-1">
          <mxGeometry x="-309" y="1490.81" width="18" height="30" as="geometry" />
        </mxCell>
        <mxCell id="k7Nxoc6H9XNy4a2hcRnU-21" style="edgeStyle=orthogonalEdgeStyle;rounded=0;orthogonalLoop=1;jettySize=auto;html=1;strokeColor=#FF0000;exitX=1;exitY=0.5;exitDx=0;exitDy=0;exitPerimeter=0;" edge="1" parent="sEW1re1bT8H7BAdPNqU6-1" source="k7Nxoc6H9XNy4a2hcRnU-7">
          <mxGeometry relative="1" as="geometry">
            <mxPoint x="-280" y="1920" as="targetPoint" />
            <mxPoint x="-260" y="1570" as="sourcePoint" />
          </mxGeometry>
        </mxCell>
        <mxCell id="k7Nxoc6H9XNy4a2hcRnU-22" value="cofig_reg_access" style="text;html=1;align=left;verticalAlign=middle;resizable=0;points=[];autosize=1;strokeColor=none;fillColor=none;fontSize=15;rotation=90;" vertex="1" parent="sEW1re1bT8H7BAdPNqU6-1">
          <mxGeometry x="-351" y="1994.94" width="140" height="30" as="geometry" />
        </mxCell>
        <mxCell id="k7Nxoc6H9XNy4a2hcRnU-27" style="edgeStyle=orthogonalEdgeStyle;rounded=0;orthogonalLoop=1;jettySize=auto;html=1;exitX=0;exitY=0.5;exitDx=0;exitDy=0;entryX=0;entryY=0.5;entryDx=0;entryDy=0;strokeColor=#00FF00;" edge="1" parent="sEW1re1bT8H7BAdPNqU6-1" target="k7Nxoc6H9XNy4a2hcRnU-23">
          <mxGeometry relative="1" as="geometry">
            <mxPoint x="480" y="449.4" as="targetPoint" />
            <mxPoint x="480" y="289.4" as="sourcePoint" />
          </mxGeometry>
        </mxCell>
        <mxCell id="k7Nxoc6H9XNy4a2hcRnU-29" style="edgeStyle=orthogonalEdgeStyle;rounded=0;orthogonalLoop=1;jettySize=auto;html=1;entryX=0.5;entryY=1;entryDx=0;entryDy=0;startArrow=oval;startFill=1;" edge="1" parent="sEW1re1bT8H7BAdPNqU6-1" target="k7Nxoc6H9XNy4a2hcRnU-23">
          <mxGeometry relative="1" as="geometry">
            <mxPoint x="240" y="1100" as="sourcePoint" />
            <Array as="points">
              <mxPoint x="240" y="760" />
            </Array>
          </mxGeometry>
        </mxCell>
        <mxCell id="rORuICa7ndz0CVHRB1nz-3" style="edgeStyle=orthogonalEdgeStyle;rounded=0;orthogonalLoop=1;jettySize=auto;html=1;startArrow=oval;startFill=1;" edge="1" parent="sEW1re1bT8H7BAdPNqU6-1">
          <mxGeometry relative="1" as="geometry">
            <mxPoint x="40" y="620" as="targetPoint" />
            <mxPoint x="640" y="760" as="sourcePoint" />
            <Array as="points">
              <mxPoint x="640" y="760" />
              <mxPoint x="640" y="620" />
            </Array>
          </mxGeometry>
        </mxCell>
        <mxCell id="b-gnr8aV9_R9fx1wgEVf-7" style="edgeStyle=orthogonalEdgeStyle;rounded=0;orthogonalLoop=1;jettySize=auto;html=1;exitX=0.5;exitY=0;exitDx=0;exitDy=0;endArrow=none;endFill=0;" edge="1" parent="sEW1re1bT8H7BAdPNqU6-1" source="k7Nxoc6H9XNy4a2hcRnU-23">
          <mxGeometry relative="1" as="geometry">
            <mxPoint x="640" y="760.3333333333335" as="targetPoint" />
          </mxGeometry>
        </mxCell>
        <mxCell id="k7Nxoc6H9XNy4a2hcRnU-23" value="&lt;font style=&quot;font-size: 15px;&quot;&gt;CONFIG: register&lt;/font&gt;" style="rounded=0;whiteSpace=wrap;html=1;direction=south;horizontal=0;" vertex="1" parent="sEW1re1bT8H7BAdPNqU6-1">
          <mxGeometry x="460" y="679.9999999999999" width="40" height="160" as="geometry" />
        </mxCell>
        <mxCell id="k7Nxoc6H9XNy4a2hcRnU-24" value="" style="triangle;whiteSpace=wrap;html=1;direction=east;" vertex="1" parent="sEW1re1bT8H7BAdPNqU6-1">
          <mxGeometry x="460" y="829.9999999999999" width="10" height="10" as="geometry" />
        </mxCell>
        <mxCell id="k7Nxoc6H9XNy4a2hcRnU-28" value="config_enable" style="text;html=1;align=left;verticalAlign=middle;resizable=0;points=[];autosize=1;strokeColor=none;fillColor=none;fontSize=15;rotation=-90;" vertex="1" parent="sEW1re1bT8H7BAdPNqU6-1">
          <mxGeometry x="420" y="194.39999999999998" width="120" height="30" as="geometry" />
        </mxCell>
        <mxCell id="k7Nxoc6H9XNy4a2hcRnU-30" value="&lt;font style=&quot;font-size: 12px;&quot;&gt;47 downto 32&lt;/font&gt;" style="text;html=1;align=center;verticalAlign=middle;resizable=0;points=[];autosize=1;strokeColor=none;fillColor=none;fontSize=15;rotation=-90;" vertex="1" parent="sEW1re1bT8H7BAdPNqU6-1">
          <mxGeometry x="180" y="829.9999999999999" width="100" height="30" as="geometry" />
        </mxCell>
        <mxCell id="rORuICa7ndz0CVHRB1nz-5" style="edgeStyle=orthogonalEdgeStyle;rounded=0;orthogonalLoop=1;jettySize=auto;html=1;exitX=0.5;exitY=0;exitDx=0;exitDy=0;" edge="1" parent="sEW1re1bT8H7BAdPNqU6-1" source="rORuICa7ndz0CVHRB1nz-4">
          <mxGeometry relative="1" as="geometry">
            <mxPoint x="-380" y="549.8235294117646" as="targetPoint" />
          </mxGeometry>
        </mxCell>
        <mxCell id="rORuICa7ndz0CVHRB1nz-8" style="edgeStyle=orthogonalEdgeStyle;rounded=0;orthogonalLoop=1;jettySize=auto;html=1;exitX=1;exitY=0.5;exitDx=0;exitDy=0;entryX=1;entryY=0.5;entryDx=0;entryDy=0;strokeColor=#00FF00;" edge="1" parent="sEW1re1bT8H7BAdPNqU6-1" target="rORuICa7ndz0CVHRB1nz-4">
          <mxGeometry relative="1" as="geometry">
            <mxPoint x="10" y="290" as="sourcePoint" />
          </mxGeometry>
        </mxCell>
        <mxCell id="rORuICa7ndz0CVHRB1nz-4" value="" style="shape=trapezoid;perimeter=trapezoidPerimeter;whiteSpace=wrap;html=1;fixedSize=1;direction=north;" vertex="1" parent="sEW1re1bT8H7BAdPNqU6-1">
          <mxGeometry x="-20" y="440" width="60" height="220" as="geometry" />
        </mxCell>
        <mxCell id="rORuICa7ndz0CVHRB1nz-6" value="0" style="text;html=1;align=center;verticalAlign=middle;resizable=0;points=[];autosize=1;strokeColor=none;fillColor=none;" vertex="1" parent="sEW1re1bT8H7BAdPNqU6-1">
          <mxGeometry x="10" y="466.24" width="30" height="30" as="geometry" />
        </mxCell>
        <mxCell id="rORuICa7ndz0CVHRB1nz-7" value="1" style="text;html=1;align=center;verticalAlign=middle;resizable=0;points=[];autosize=1;strokeColor=none;fillColor=none;" vertex="1" parent="sEW1re1bT8H7BAdPNqU6-1">
          <mxGeometry x="10" y="610" width="30" height="30" as="geometry" />
        </mxCell>
        <mxCell id="rORuICa7ndz0CVHRB1nz-9" value="muxout_sel" style="text;html=1;align=left;verticalAlign=middle;resizable=0;points=[];autosize=1;strokeColor=none;fillColor=none;fontSize=15;rotation=-90;" vertex="1" parent="sEW1re1bT8H7BAdPNqU6-1">
          <mxGeometry x="-40.63" y="202.4" width="100" height="30" as="geometry" />
        </mxCell>
        <mxCell id="b-gnr8aV9_R9fx1wgEVf-0" style="edgeStyle=orthogonalEdgeStyle;rounded=0;orthogonalLoop=1;jettySize=auto;html=1;strokeColor=#FF0000;exitX=1;exitY=0.5;exitDx=0;exitDy=0;exitPerimeter=0;" edge="1" parent="sEW1re1bT8H7BAdPNqU6-1">
          <mxGeometry relative="1" as="geometry">
            <mxPoint x="-200" y="1920" as="targetPoint" />
            <mxPoint x="-200.09" y="1341.06" as="sourcePoint" />
          </mxGeometry>
        </mxCell>
        <mxCell id="b-gnr8aV9_R9fx1wgEVf-2" value="write_op" style="text;html=1;align=left;verticalAlign=middle;resizable=0;points=[];autosize=1;strokeColor=none;fillColor=none;fontSize=15;rotation=90;" vertex="1" parent="sEW1re1bT8H7BAdPNqU6-1">
          <mxGeometry x="-240" y="1964.94" width="80" height="30" as="geometry" />
        </mxCell>
        <mxCell id="b-gnr8aV9_R9fx1wgEVf-3" value="" style="endArrow=classic;html=1;rounded=0;fontSize=15;startArrow=oval;startFill=1;" edge="1" parent="sEW1re1bT8H7BAdPNqU6-1">
          <mxGeometry width="50" height="50" relative="1" as="geometry">
            <mxPoint x="-200.63" y="1340.4" as="sourcePoint" />
            <mxPoint x="59.37" y="1100" as="targetPoint" />
            <Array as="points">
              <mxPoint x="59.37" y="1340.4" />
            </Array>
          </mxGeometry>
        </mxCell>
        <mxCell id="b-gnr8aV9_R9fx1wgEVf-4" value="" style="endArrow=none;html=1;rounded=0;" edge="1" parent="sEW1re1bT8H7BAdPNqU6-1">
          <mxGeometry width="50" height="50" relative="1" as="geometry">
            <mxPoint x="-200" y="1340" as="sourcePoint" />
            <mxPoint x="-380" y="1340" as="targetPoint" />
          </mxGeometry>
        </mxCell>
        <mxCell id="b-gnr8aV9_R9fx1wgEVf-6" style="edgeStyle=orthogonalEdgeStyle;rounded=0;orthogonalLoop=1;jettySize=auto;html=1;exitX=0;exitY=0.25;exitDx=0;exitDy=0;exitPerimeter=0;endArrow=oval;endFill=1;" edge="1" parent="sEW1re1bT8H7BAdPNqU6-1" source="j8gfzccHp9FTqzgJoere-9">
          <mxGeometry relative="1" as="geometry">
            <mxPoint x="1180" y="1499.64" as="targetPoint" />
            <mxPoint x="1208" y="1495.88" as="sourcePoint" />
          </mxGeometry>
        </mxCell>
        <mxCell id="vHqs5PdROzmDWvxuOJ-A-2" value="&lt;font style=&quot;font-size: 15px;&quot;&gt;ssram_address_space&lt;/font&gt;" style="text;html=1;align=left;verticalAlign=middle;resizable=0;points=[];autosize=1;strokeColor=none;fillColor=none;" vertex="1" parent="sEW1re1bT8H7BAdPNqU6-1">
          <mxGeometry x="1419" y="345.9999999999998" width="170" height="30" as="geometry" />
        </mxCell>
        <mxCell id="IWrfuLK2k04X4sjMVZR2-0" value="mem_address_space" style="text;html=1;align=left;verticalAlign=middle;resizable=0;points=[];autosize=1;strokeColor=none;fillColor=none;fontSize=15;rotation=-90;" vertex="1" parent="sEW1re1bT8H7BAdPNqU6-1">
          <mxGeometry x="1005" y="169.39999999999998" width="170" height="30" as="geometry" />
        </mxCell>
        <mxCell id="IWrfuLK2k04X4sjMVZR2-5" style="edgeStyle=orthogonalEdgeStyle;rounded=0;orthogonalLoop=1;jettySize=auto;html=1;exitX=0.5;exitY=1;exitDx=0;exitDy=0;" edge="1" parent="sEW1re1bT8H7BAdPNqU6-1" source="IWrfuLK2k04X4sjMVZR2-1">
          <mxGeometry relative="1" as="geometry">
            <mxPoint x="1060" y="1090.77" as="targetPoint" />
          </mxGeometry>
        </mxCell>
        <mxCell id="IWrfuLK2k04X4sjMVZR2-1" value="&lt;font style=&quot;font-size: 15px;&quot;&gt;CONFIG_REG_ADDRESS: register&lt;/font&gt;" style="rounded=0;whiteSpace=wrap;html=1;direction=east;horizontal=1;rotation=-90;" vertex="1" parent="sEW1re1bT8H7BAdPNqU6-1">
          <mxGeometry x="820" y="1070.77" width="280" height="40" as="geometry" />
        </mxCell>
        <mxCell id="IWrfuLK2k04X4sjMVZR2-3" value="" style="triangle;whiteSpace=wrap;html=1;direction=east;" vertex="1" parent="sEW1re1bT8H7BAdPNqU6-1">
          <mxGeometry x="940.12" y="950.6" width="10" height="10" as="geometry" />
        </mxCell>
        <mxCell id="IWrfuLK2k04X4sjMVZR2-6" style="edgeStyle=orthogonalEdgeStyle;rounded=0;orthogonalLoop=1;jettySize=auto;html=1;exitX=0.5;exitY=0;exitDx=0;exitDy=0;" edge="1" parent="sEW1re1bT8H7BAdPNqU6-1" source="IWrfuLK2k04X4sjMVZR2-4">
          <mxGeometry relative="1" as="geometry">
            <mxPoint x="1400" y="1130.3333333333335" as="targetPoint" />
          </mxGeometry>
        </mxCell>
        <mxCell id="IWrfuLK2k04X4sjMVZR2-9" style="edgeStyle=orthogonalEdgeStyle;rounded=0;orthogonalLoop=1;jettySize=auto;html=1;entryX=0;entryY=0.5;entryDx=0;entryDy=0;strokeColor=#00FF00;" edge="1" parent="sEW1re1bT8H7BAdPNqU6-1" target="IWrfuLK2k04X4sjMVZR2-4">
          <mxGeometry relative="1" as="geometry">
            <mxPoint x="1090" y="290" as="sourcePoint" />
          </mxGeometry>
        </mxCell>
        <mxCell id="IWrfuLK2k04X4sjMVZR2-4" value="" style="shape=trapezoid;perimeter=trapezoidPerimeter;whiteSpace=wrap;html=1;fixedSize=1;direction=south;" vertex="1" parent="sEW1re1bT8H7BAdPNqU6-1">
          <mxGeometry x="1060" y="1040.77" width="60" height="180" as="geometry" />
        </mxCell>
        <mxCell id="IWrfuLK2k04X4sjMVZR2-7" value="0" style="text;html=1;align=center;verticalAlign=middle;resizable=0;points=[];autosize=1;strokeColor=none;fillColor=none;" vertex="1" parent="sEW1re1bT8H7BAdPNqU6-1">
          <mxGeometry x="1060" y="1156.83" width="30" height="30" as="geometry" />
        </mxCell>
        <mxCell id="IWrfuLK2k04X4sjMVZR2-8" value="1" style="text;html=1;align=center;verticalAlign=middle;resizable=0;points=[];autosize=1;strokeColor=none;fillColor=none;" vertex="1" parent="sEW1re1bT8H7BAdPNqU6-1">
          <mxGeometry x="1060" y="1075.77" width="30" height="30" as="geometry" />
        </mxCell>
        <mxCell id="IWrfuLK2k04X4sjMVZR2-10" value="" style="endArrow=classic;html=1;rounded=0;startArrow=oval;startFill=1;" edge="1" parent="sEW1re1bT8H7BAdPNqU6-1">
          <mxGeometry width="50" height="50" relative="1" as="geometry">
            <mxPoint x="1090" y="360" as="sourcePoint" />
            <mxPoint x="1400" y="360.52" as="targetPoint" />
          </mxGeometry>
        </mxCell>
        <mxCell id="IWrfuLK2k04X4sjMVZR2-11" value="&lt;div&gt;invece che dare la possibilità di sovrascrivere i reserved, ignorare i bit inviati &lt;br&gt;&lt;/div&gt;&lt;div&gt;per essi ed utilizzarli per insierire i valori di inizializzazione&lt;/div&gt;" style="text;html=1;align=center;verticalAlign=middle;resizable=0;points=[];autosize=1;strokeColor=none;fillColor=none;" vertex="1" parent="sEW1re1bT8H7BAdPNqU6-1">
          <mxGeometry x="-380" y="790" width="430" height="40" as="geometry" />
        </mxCell>
        <mxCell id="IWrfuLK2k04X4sjMVZR2-12" value="" style="endArrow=classic;html=1;rounded=0;endFill=1;" edge="1" parent="sEW1re1bT8H7BAdPNqU6-1">
          <mxGeometry width="50" height="50" relative="1" as="geometry">
            <mxPoint x="640" y="760" as="sourcePoint" />
            <mxPoint x="930" y="760.24" as="targetPoint" />
          </mxGeometry>
        </mxCell>
        <mxCell id="IWrfuLK2k04X4sjMVZR2-14" style="edgeStyle=orthogonalEdgeStyle;rounded=0;orthogonalLoop=1;jettySize=auto;html=1;exitX=0;exitY=0.25;exitDx=0;exitDy=0;exitPerimeter=0;endArrow=oval;endFill=1;" edge="1" parent="sEW1re1bT8H7BAdPNqU6-1">
          <mxGeometry relative="1" as="geometry">
            <mxPoint x="1181" y="1439.2353846153844" as="targetPoint" />
            <mxPoint x="1206" y="1439.62" as="sourcePoint" />
          </mxGeometry>
        </mxCell>
        <mxCell id="IWrfuLK2k04X4sjMVZR2-19" style="edgeStyle=orthogonalEdgeStyle;rounded=0;orthogonalLoop=1;jettySize=auto;html=1;exitX=0.5;exitY=0;exitDx=0;exitDy=0;" edge="1" parent="sEW1re1bT8H7BAdPNqU6-1" source="IWrfuLK2k04X4sjMVZR2-16">
          <mxGeometry relative="1" as="geometry">
            <mxPoint x="1400" y="800.1764705882354" as="targetPoint" />
          </mxGeometry>
        </mxCell>
        <mxCell id="IWrfuLK2k04X4sjMVZR2-22" style="edgeStyle=orthogonalEdgeStyle;rounded=0;orthogonalLoop=1;jettySize=auto;html=1;exitX=0;exitY=0.5;exitDx=0;exitDy=0;entryX=0;entryY=0.5;entryDx=0;entryDy=0;strokeColor=#00FF00;" edge="1" parent="sEW1re1bT8H7BAdPNqU6-1" target="IWrfuLK2k04X4sjMVZR2-16">
          <mxGeometry relative="1" as="geometry">
            <mxPoint x="959.7142857142858" y="290" as="sourcePoint" />
          </mxGeometry>
        </mxCell>
        <mxCell id="IWrfuLK2k04X4sjMVZR2-16" value="" style="shape=trapezoid;perimeter=trapezoidPerimeter;whiteSpace=wrap;html=1;fixedSize=1;direction=south;" vertex="1" parent="sEW1re1bT8H7BAdPNqU6-1">
          <mxGeometry x="930" y="710.77" width="60" height="180" as="geometry" />
        </mxCell>
        <mxCell id="IWrfuLK2k04X4sjMVZR2-17" value="0" style="text;html=1;align=center;verticalAlign=middle;resizable=0;points=[];autosize=1;strokeColor=none;fillColor=none;" vertex="1" parent="sEW1re1bT8H7BAdPNqU6-1">
          <mxGeometry x="930" y="826.8299999999999" width="30" height="30" as="geometry" />
        </mxCell>
        <mxCell id="IWrfuLK2k04X4sjMVZR2-18" value="1" style="text;html=1;align=center;verticalAlign=middle;resizable=0;points=[];autosize=1;strokeColor=none;fillColor=none;" vertex="1" parent="sEW1re1bT8H7BAdPNqU6-1">
          <mxGeometry x="930" y="745.77" width="30" height="30" as="geometry" />
        </mxCell>
        <mxCell id="IWrfuLK2k04X4sjMVZR2-23" value="mem_input_sel" style="text;html=1;align=left;verticalAlign=middle;resizable=0;points=[];autosize=1;strokeColor=none;fillColor=none;fontSize=15;rotation=-90;" vertex="1" parent="sEW1re1bT8H7BAdPNqU6-1">
          <mxGeometry x="895" y="189.99999999999997" width="130" height="30" as="geometry" />
        </mxCell>
        <mxCell id="IWrfuLK2k04X4sjMVZR2-28" style="edgeStyle=orthogonalEdgeStyle;rounded=0;orthogonalLoop=1;jettySize=auto;html=1;exitX=0;exitY=0.25;exitDx=0;exitDy=0;exitPerimeter=0;endArrow=none;endFill=0;" edge="1" parent="sEW1re1bT8H7BAdPNqU6-1" source="IWrfuLK2k04X4sjMVZR2-25">
          <mxGeometry relative="1" as="geometry">
            <mxPoint x="1280" y="1429.9285714285716" as="targetPoint" />
          </mxGeometry>
        </mxCell>
        <mxCell id="IWrfuLK2k04X4sjMVZR2-25" value="" style="verticalLabelPosition=bottom;shadow=0;dashed=0;align=center;html=1;verticalAlign=top;shape=mxgraph.electrical.logic_gates.logic_gate;operation=or;aspect=fixed;" vertex="1" parent="sEW1re1bT8H7BAdPNqU6-1">
          <mxGeometry x="1310" y="1419.9" width="66.67" height="40" as="geometry" />
        </mxCell>
        <mxCell id="IWrfuLK2k04X4sjMVZR2-27" value="" style="endArrow=none;html=1;rounded=0;strokeColor=#00FF00;endFill=0;" edge="1" parent="sEW1re1bT8H7BAdPNqU6-1">
          <mxGeometry width="50" height="50" relative="1" as="geometry">
            <mxPoint x="1280" y="290" as="sourcePoint" />
            <mxPoint x="1280" y="1429.5" as="targetPoint" />
            <Array as="points" />
          </mxGeometry>
        </mxCell>
        <mxCell id="IWrfuLK2k04X4sjMVZR2-29" value="force_write" style="text;html=1;align=left;verticalAlign=middle;resizable=0;points=[];autosize=1;strokeColor=none;fillColor=none;fontSize=15;rotation=-90;" vertex="1" parent="sEW1re1bT8H7BAdPNqU6-1">
          <mxGeometry x="1230" y="204.39999999999998" width="100" height="30" as="geometry" />
        </mxCell>
        <mxCell id="IWrfuLK2k04X4sjMVZR2-30" value="anche perche al momento CONFIG deve essere identico al registro di configurtazione effettivo" style="text;html=1;align=center;verticalAlign=middle;resizable=0;points=[];autosize=1;strokeColor=none;fillColor=none;" vertex="1" parent="sEW1re1bT8H7BAdPNqU6-1">
          <mxGeometry x="-460" y="838" width="520" height="30" as="geometry" />
        </mxCell>
      </root>
    </mxGraphModel>
  </diagram>
  <diagram name="AvalonMM_to_SSRAM: FSM" id="7cOUtxpOADkt3iQJw6D3">
    <mxGraphModel dx="3970" dy="1277" grid="1" gridSize="10" guides="1" tooltips="1" connect="1" arrows="1" fold="1" page="1" pageScale="1" pageWidth="850" pageHeight="1100" math="0" shadow="0">
      <root>
        <mxCell id="gHbopcMJqhLfQALP6Ct7-0" />
        <mxCell id="gHbopcMJqhLfQALP6Ct7-1" parent="gHbopcMJqhLfQALP6Ct7-0" />
        <mxCell id="TOFqemQ2LBVTlinUqJPV-0" style="edgeStyle=orthogonalEdgeStyle;rounded=0;orthogonalLoop=1;jettySize=auto;html=1;exitX=0.5;exitY=1;exitDx=0;exitDy=0;entryX=0.5;entryY=0;entryDx=0;entryDy=0;" parent="gHbopcMJqhLfQALP6Ct7-1" source="TOFqemQ2LBVTlinUqJPV-1" target="TOFqemQ2LBVTlinUqJPV-6" edge="1">
          <mxGeometry relative="1" as="geometry">
            <mxPoint x="1180" y="345" as="targetPoint" />
          </mxGeometry>
        </mxCell>
        <mxCell id="TOFqemQ2LBVTlinUqJPV-1" value="&lt;div&gt;waitrequest&lt;br&gt;&lt;/div&gt;&lt;div&gt;fifo4_clear_n&lt;br&gt;&lt;/div&gt;&lt;div&gt;por_clear_n&lt;br&gt;&lt;/div&gt;&lt;div&gt;tgl_clear_n&lt;/div&gt;" style="rounded=0;whiteSpace=wrap;html=1;" parent="gHbopcMJqhLfQALP6Ct7-1" vertex="1">
          <mxGeometry x="1120" y="120" width="120" height="90" as="geometry" />
        </mxCell>
        <mxCell id="TOFqemQ2LBVTlinUqJPV-2" style="edgeStyle=orthogonalEdgeStyle;rounded=0;orthogonalLoop=1;jettySize=auto;html=1;exitX=0.5;exitY=0;exitDx=0;exitDy=0;dashed=1;entryX=0.5;entryY=0;entryDx=0;entryDy=0;" parent="gHbopcMJqhLfQALP6Ct7-1" target="TOFqemQ2LBVTlinUqJPV-3" edge="1">
          <mxGeometry relative="1" as="geometry">
            <mxPoint x="1230" y="70" as="targetPoint" />
            <mxPoint x="1179.9655172413793" y="50" as="sourcePoint" />
            <Array as="points">
              <mxPoint x="1180" y="80" />
              <mxPoint x="1180" y="80" />
            </Array>
          </mxGeometry>
        </mxCell>
        <mxCell id="TOFqemQ2LBVTlinUqJPV-3" value="RESET" style="rounded=0;whiteSpace=wrap;html=1;" parent="gHbopcMJqhLfQALP6Ct7-1" vertex="1">
          <mxGeometry x="1120" y="100" width="120" height="20" as="geometry" />
        </mxCell>
        <mxCell id="TOFqemQ2LBVTlinUqJPV-4" value="rst" style="text;html=1;align=center;verticalAlign=middle;resizable=0;points=[];autosize=1;strokeColor=none;fillColor=none;" parent="gHbopcMJqhLfQALP6Ct7-1" vertex="1">
          <mxGeometry x="1160" y="20" width="40" height="30" as="geometry" />
        </mxCell>
        <mxCell id="ugUvYMDnC1fzeENAK-n0-21" style="edgeStyle=orthogonalEdgeStyle;rounded=0;orthogonalLoop=1;jettySize=auto;html=1;exitX=0.5;exitY=1;exitDx=0;exitDy=0;" parent="gHbopcMJqhLfQALP6Ct7-1" source="TOFqemQ2LBVTlinUqJPV-5" edge="1">
          <mxGeometry relative="1" as="geometry">
            <mxPoint x="1180" y="460" as="targetPoint" />
            <Array as="points">
              <mxPoint x="1180" y="425" />
              <mxPoint x="1180" y="425" />
            </Array>
          </mxGeometry>
        </mxCell>
        <mxCell id="TOFqemQ2LBVTlinUqJPV-5" value="&lt;div&gt;command_enable&lt;/div&gt;&lt;div&gt;por_enable&lt;br&gt;&lt;/div&gt;&lt;div&gt;readdata_enable&lt;br&gt;&lt;/div&gt;" style="rounded=0;whiteSpace=wrap;html=1;" parent="gHbopcMJqhLfQALP6Ct7-1" vertex="1">
          <mxGeometry x="1120" y="345" width="120" height="50" as="geometry" />
        </mxCell>
        <mxCell id="TOFqemQ2LBVTlinUqJPV-6" value="IDLE" style="rounded=0;whiteSpace=wrap;html=1;" parent="gHbopcMJqhLfQALP6Ct7-1" vertex="1">
          <mxGeometry x="1120" y="325" width="120" height="20" as="geometry" />
        </mxCell>
        <mxCell id="chEV1ipLW2FuLG0MZyKB-1" value="1" style="edgeStyle=orthogonalEdgeStyle;rounded=0;orthogonalLoop=1;jettySize=auto;html=1;exitX=0;exitY=0.5;exitDx=0;exitDy=0;entryX=1;entryY=0.5;entryDx=0;entryDy=0;" parent="gHbopcMJqhLfQALP6Ct7-1" source="5lTAiwlnq1v5YwnoY-Tq-0" target="chEV1ipLW2FuLG0MZyKB-0" edge="1">
          <mxGeometry relative="1" as="geometry" />
        </mxCell>
        <mxCell id="mH3VhtUJQ5IK_O_cGqcQ-0" value="0" style="edgeStyle=orthogonalEdgeStyle;rounded=0;orthogonalLoop=1;jettySize=auto;html=1;exitX=1;exitY=0.5;exitDx=0;exitDy=0;entryX=0;entryY=0.5;entryDx=0;entryDy=0;" parent="gHbopcMJqhLfQALP6Ct7-1" source="5lTAiwlnq1v5YwnoY-Tq-0" target="k44mnLu3KN8C34HpBLnE-5" edge="1">
          <mxGeometry relative="1" as="geometry" />
        </mxCell>
        <mxCell id="5lTAiwlnq1v5YwnoY-Tq-0" value="mem_validout" style="rhombus;whiteSpace=wrap;html=1;" parent="gHbopcMJqhLfQALP6Ct7-1" vertex="1">
          <mxGeometry x="530" y="720" width="100" height="80" as="geometry" />
        </mxCell>
        <mxCell id="mhjrLPfmGIPaGUOXnaPU-24" style="edgeStyle=orthogonalEdgeStyle;rounded=0;orthogonalLoop=1;jettySize=auto;html=1;exitX=0.5;exitY=1;exitDx=0;exitDy=0;" parent="gHbopcMJqhLfQALP6Ct7-1" source="dTlI5wrIrm0M_NYCQq1E-1" edge="1">
          <mxGeometry relative="1" as="geometry">
            <mxPoint x="-20" y="460" as="targetPoint" />
          </mxGeometry>
        </mxCell>
        <mxCell id="dTlI5wrIrm0M_NYCQq1E-1" value="&lt;div&gt;command_enable&lt;/div&gt;&lt;div&gt;por_enable&lt;br&gt;&lt;/div&gt;&lt;div&gt;readdata_enable&lt;br&gt;&lt;/div&gt;&lt;div&gt;readdatavalid&lt;br&gt;&lt;/div&gt;" style="rounded=0;whiteSpace=wrap;html=1;" parent="gHbopcMJqhLfQALP6Ct7-1" vertex="1">
          <mxGeometry x="-80" y="335" width="120" height="70" as="geometry" />
        </mxCell>
        <mxCell id="dTlI5wrIrm0M_NYCQq1E-2" value="IDLE_VALID" style="rounded=0;whiteSpace=wrap;html=1;" parent="gHbopcMJqhLfQALP6Ct7-1" vertex="1">
          <mxGeometry x="-80" y="315" width="120" height="20" as="geometry" />
        </mxCell>
        <mxCell id="kvlA3hQWvPA95vudkCkl-1" value="1" style="edgeStyle=orthogonalEdgeStyle;rounded=0;orthogonalLoop=1;jettySize=auto;html=1;exitX=0.5;exitY=1;exitDx=0;exitDy=0;entryX=0.5;entryY=0;entryDx=0;entryDy=0;" parent="gHbopcMJqhLfQALP6Ct7-1" source="chEV1ipLW2FuLG0MZyKB-0" target="kvlA3hQWvPA95vudkCkl-0" edge="1">
          <mxGeometry x="-0.907" relative="1" as="geometry">
            <mxPoint as="offset" />
          </mxGeometry>
        </mxCell>
        <mxCell id="mhjrLPfmGIPaGUOXnaPU-11" value="0" style="edgeStyle=orthogonalEdgeStyle;rounded=0;orthogonalLoop=1;jettySize=auto;html=1;exitX=0.5;exitY=0;exitDx=0;exitDy=0;entryX=0.5;entryY=1;entryDx=0;entryDy=0;" parent="gHbopcMJqhLfQALP6Ct7-1" source="chEV1ipLW2FuLG0MZyKB-0" target="ugUvYMDnC1fzeENAK-n0-3" edge="1">
          <mxGeometry relative="1" as="geometry">
            <mxPoint x="410" y="630" as="targetPoint" />
          </mxGeometry>
        </mxCell>
        <mxCell id="chEV1ipLW2FuLG0MZyKB-0" value="op_req" style="rhombus;whiteSpace=wrap;html=1;" parent="gHbopcMJqhLfQALP6Ct7-1" vertex="1">
          <mxGeometry x="330" y="720" width="100" height="80" as="geometry" />
        </mxCell>
        <mxCell id="kvlA3hQWvPA95vudkCkl-3" value="0" style="edgeStyle=orthogonalEdgeStyle;rounded=0;orthogonalLoop=1;jettySize=auto;html=1;exitX=0;exitY=0.5;exitDx=0;exitDy=0;entryX=1;entryY=0.5;entryDx=0;entryDy=0;" parent="gHbopcMJqhLfQALP6Ct7-1" source="kvlA3hQWvPA95vudkCkl-0" target="kvlA3hQWvPA95vudkCkl-2" edge="1">
          <mxGeometry x="-0.1111" relative="1" as="geometry">
            <mxPoint as="offset" />
          </mxGeometry>
        </mxCell>
        <mxCell id="k44mnLu3KN8C34HpBLnE-1" value="1" style="edgeStyle=orthogonalEdgeStyle;rounded=0;orthogonalLoop=1;jettySize=auto;html=1;exitX=1;exitY=0.5;exitDx=0;exitDy=0;entryX=0;entryY=0.5;entryDx=0;entryDy=0;" parent="gHbopcMJqhLfQALP6Ct7-1" source="kvlA3hQWvPA95vudkCkl-0" target="k44mnLu3KN8C34HpBLnE-0" edge="1">
          <mxGeometry relative="1" as="geometry" />
        </mxCell>
        <mxCell id="kvlA3hQWvPA95vudkCkl-0" value="previous_op_req" style="rhombus;whiteSpace=wrap;html=1;" parent="gHbopcMJqhLfQALP6Ct7-1" vertex="1">
          <mxGeometry x="320" y="1279.97" width="120" height="80" as="geometry" />
        </mxCell>
        <mxCell id="pspYn3clw9Oj7FqdiPny-2" value="1" style="edgeStyle=orthogonalEdgeStyle;rounded=0;orthogonalLoop=1;jettySize=auto;html=1;exitX=0.5;exitY=0;exitDx=0;exitDy=0;" parent="gHbopcMJqhLfQALP6Ct7-1" source="kvlA3hQWvPA95vudkCkl-2" edge="1">
          <mxGeometry x="-0.8222" relative="1" as="geometry">
            <mxPoint as="offset" />
            <Array as="points" />
            <mxPoint x="180" y="1200" as="targetPoint" />
          </mxGeometry>
        </mxCell>
        <mxCell id="kt5a-0p5IZ3u5DeEQboj-9" value="0" style="edgeStyle=orthogonalEdgeStyle;rounded=0;orthogonalLoop=1;jettySize=auto;html=1;exitX=0.5;exitY=1;exitDx=0;exitDy=0;" parent="gHbopcMJqhLfQALP6Ct7-1" source="kvlA3hQWvPA95vudkCkl-2" edge="1">
          <mxGeometry x="-0.8332" relative="1" as="geometry">
            <mxPoint x="580" y="1440.03" as="targetPoint" />
            <Array as="points">
              <mxPoint x="180" y="1440.03" />
            </Array>
            <mxPoint as="offset" />
          </mxGeometry>
        </mxCell>
        <mxCell id="kvlA3hQWvPA95vudkCkl-2" value="fifo4_full" style="rhombus;whiteSpace=wrap;html=1;" parent="gHbopcMJqhLfQALP6Ct7-1" vertex="1">
          <mxGeometry x="130" y="1279.97" width="100" height="80" as="geometry" />
        </mxCell>
        <mxCell id="IAAMnW2y6-2EbQr6ppY7-1" style="edgeStyle=orthogonalEdgeStyle;rounded=0;orthogonalLoop=1;jettySize=auto;html=1;exitX=0;exitY=0.5;exitDx=0;exitDy=0;" parent="gHbopcMJqhLfQALP6Ct7-1" source="vAJ9OHpdQopsDBLFH6ca-19" edge="1">
          <mxGeometry relative="1" as="geometry">
            <Array as="points" />
            <mxPoint x="-540" y="1200.06" as="sourcePoint" />
            <mxPoint x="-580" y="1120" as="targetPoint" />
          </mxGeometry>
        </mxCell>
        <mxCell id="kvlA3hQWvPA95vudkCkl-4" value="&lt;div&gt;waitrequest&lt;/div&gt;&lt;div&gt;readdata_enable&lt;br&gt;&lt;/div&gt;&lt;div&gt;readdatavalid&lt;br&gt;&lt;/div&gt;" style="rounded=0;whiteSpace=wrap;html=1;" parent="gHbopcMJqhLfQALP6Ct7-1" vertex="1">
          <mxGeometry x="-480" y="1320.06" width="120" height="50" as="geometry" />
        </mxCell>
        <mxCell id="kvlA3hQWvPA95vudkCkl-5" value="WAITING_VALID" style="rounded=0;whiteSpace=wrap;html=1;" parent="gHbopcMJqhLfQALP6Ct7-1" vertex="1">
          <mxGeometry x="-480" y="1300.06" width="120" height="20" as="geometry" />
        </mxCell>
        <mxCell id="IAAMnW2y6-2EbQr6ppY7-4" value="1" style="edgeStyle=orthogonalEdgeStyle;rounded=0;orthogonalLoop=1;jettySize=auto;html=1;exitX=1;exitY=0.5;exitDx=0;exitDy=0;" parent="gHbopcMJqhLfQALP6Ct7-1" source="IAAMnW2y6-2EbQr6ppY7-0" edge="1">
          <mxGeometry x="-0.8333" relative="1" as="geometry">
            <mxPoint x="-20" y="1200" as="targetPoint" />
            <mxPoint as="offset" />
            <Array as="points">
              <mxPoint x="-20" y="1440" />
            </Array>
          </mxGeometry>
        </mxCell>
        <mxCell id="kt5a-0p5IZ3u5DeEQboj-4" value="0" style="edgeStyle=orthogonalEdgeStyle;rounded=0;orthogonalLoop=1;jettySize=auto;html=1;exitX=0;exitY=0.5;exitDx=0;exitDy=0;entryX=1;entryY=0.5;entryDx=0;entryDy=0;" parent="gHbopcMJqhLfQALP6Ct7-1" source="IAAMnW2y6-2EbQr6ppY7-0" target="ugUvYMDnC1fzeENAK-n0-15" edge="1">
          <mxGeometry x="-0.1429" relative="1" as="geometry">
            <mxPoint x="-860" y="1580" as="targetPoint" />
            <mxPoint x="-700" y="1640" as="sourcePoint" />
            <mxPoint as="offset" />
            <Array as="points">
              <mxPoint x="-790" y="1440" />
              <mxPoint x="-790" y="1440" />
            </Array>
          </mxGeometry>
        </mxCell>
        <mxCell id="IAAMnW2y6-2EbQr6ppY7-0" value="fifo4_full" style="rhombus;whiteSpace=wrap;html=1;" parent="gHbopcMJqhLfQALP6Ct7-1" vertex="1">
          <mxGeometry x="-750" y="1400" width="100" height="80" as="geometry" />
        </mxCell>
        <mxCell id="IAAMnW2y6-2EbQr6ppY7-3" value="1" style="edgeStyle=orthogonalEdgeStyle;rounded=0;orthogonalLoop=1;jettySize=auto;html=1;exitX=0.5;exitY=1;exitDx=0;exitDy=0;entryX=0.5;entryY=0;entryDx=0;entryDy=0;" parent="gHbopcMJqhLfQALP6Ct7-1" source="IAAMnW2y6-2EbQr6ppY7-2" target="IAAMnW2y6-2EbQr6ppY7-0" edge="1">
          <mxGeometry relative="1" as="geometry">
            <mxPoint x="-700" y="1370" as="targetPoint" />
          </mxGeometry>
        </mxCell>
        <mxCell id="IAAMnW2y6-2EbQr6ppY7-12" value="0" style="edgeStyle=orthogonalEdgeStyle;rounded=0;orthogonalLoop=1;jettySize=auto;html=1;exitX=0.5;exitY=0;exitDx=0;exitDy=0;entryX=0.5;entryY=1;entryDx=0;entryDy=0;" parent="gHbopcMJqhLfQALP6Ct7-1" source="IAAMnW2y6-2EbQr6ppY7-2" target="IAAMnW2y6-2EbQr6ppY7-11" edge="1">
          <mxGeometry x="-0.6" relative="1" as="geometry">
            <mxPoint as="offset" />
          </mxGeometry>
        </mxCell>
        <mxCell id="ugUvYMDnC1fzeENAK-n0-24" style="edgeStyle=orthogonalEdgeStyle;rounded=0;orthogonalLoop=1;jettySize=auto;html=1;" parent="gHbopcMJqhLfQALP6Ct7-1" target="IAAMnW2y6-2EbQr6ppY7-2" edge="1">
          <mxGeometry relative="1" as="geometry">
            <mxPoint x="-580" y="1120" as="sourcePoint" />
          </mxGeometry>
        </mxCell>
        <mxCell id="IAAMnW2y6-2EbQr6ppY7-2" value="mem_validout" style="rhombus;whiteSpace=wrap;html=1;" parent="gHbopcMJqhLfQALP6Ct7-1" vertex="1">
          <mxGeometry x="-750" y="1080" width="100" height="80" as="geometry" />
        </mxCell>
        <mxCell id="IAAMnW2y6-2EbQr6ppY7-14" style="edgeStyle=orthogonalEdgeStyle;rounded=0;orthogonalLoop=1;jettySize=auto;html=1;exitX=0;exitY=0.5;exitDx=0;exitDy=0;" parent="gHbopcMJqhLfQALP6Ct7-1" source="IAAMnW2y6-2EbQr6ppY7-5" edge="1">
          <mxGeometry relative="1" as="geometry">
            <mxPoint x="-580" y="1120" as="targetPoint" />
            <mxPoint x="-520" y="850" as="sourcePoint" />
            <Array as="points">
              <mxPoint x="-580" y="1040" />
            </Array>
          </mxGeometry>
        </mxCell>
        <mxCell id="IAAMnW2y6-2EbQr6ppY7-5" value="&lt;div&gt;waitrequest&lt;/div&gt;&lt;div&gt;readdata_enable&lt;br&gt;&lt;/div&gt;" style="rounded=0;whiteSpace=wrap;html=1;" parent="gHbopcMJqhLfQALP6Ct7-1" vertex="1">
          <mxGeometry x="-480" y="1020" width="120" height="40" as="geometry" />
        </mxCell>
        <mxCell id="IAAMnW2y6-2EbQr6ppY7-6" value="WAITING" style="rounded=0;whiteSpace=wrap;html=1;" parent="gHbopcMJqhLfQALP6Ct7-1" vertex="1">
          <mxGeometry x="-480" y="1000" width="120" height="20" as="geometry" />
        </mxCell>
        <mxCell id="IAAMnW2y6-2EbQr6ppY7-13" value="1" style="edgeStyle=orthogonalEdgeStyle;rounded=0;orthogonalLoop=1;jettySize=auto;html=1;exitX=1;exitY=0.5;exitDx=0;exitDy=0;" parent="gHbopcMJqhLfQALP6Ct7-1" source="IAAMnW2y6-2EbQr6ppY7-11" edge="1">
          <mxGeometry x="-0.8491" relative="1" as="geometry">
            <mxPoint x="-20" y="880" as="targetPoint" />
            <mxPoint as="offset" />
            <Array as="points">
              <mxPoint x="-20" y="760" />
            </Array>
          </mxGeometry>
        </mxCell>
        <mxCell id="3OaTQPlmbVttKwKVyQs0-4" value="0" style="edgeStyle=orthogonalEdgeStyle;rounded=0;orthogonalLoop=1;jettySize=auto;html=1;exitX=0;exitY=0.5;exitDx=0;exitDy=0;entryX=1;entryY=0.5;entryDx=0;entryDy=0;" parent="gHbopcMJqhLfQALP6Ct7-1" source="IAAMnW2y6-2EbQr6ppY7-11" target="ugUvYMDnC1fzeENAK-n0-18" edge="1">
          <mxGeometry relative="1" as="geometry">
            <mxPoint x="-900" y="750" as="targetPoint" />
          </mxGeometry>
        </mxCell>
        <mxCell id="IAAMnW2y6-2EbQr6ppY7-11" value="fifo4_full" style="rhombus;whiteSpace=wrap;html=1;" parent="gHbopcMJqhLfQALP6Ct7-1" vertex="1">
          <mxGeometry x="-750" y="720" width="100" height="80" as="geometry" />
        </mxCell>
        <mxCell id="IAAMnW2y6-2EbQr6ppY7-15" value="&lt;div&gt;command_enable&lt;/div&gt;&lt;div&gt;por_enable&lt;br&gt;&lt;/div&gt;&lt;div&gt;readdata_enable&lt;br&gt;&lt;/div&gt;&lt;div&gt;fifo4_push&lt;br&gt;&lt;/div&gt;" style="rounded=0;whiteSpace=wrap;html=1;" parent="gHbopcMJqhLfQALP6Ct7-1" vertex="1">
          <mxGeometry x="-960" y="525" width="120" height="70" as="geometry" />
        </mxCell>
        <mxCell id="kt5a-0p5IZ3u5DeEQboj-1" style="edgeStyle=orthogonalEdgeStyle;rounded=0;orthogonalLoop=1;jettySize=auto;html=1;exitX=0.5;exitY=0;exitDx=0;exitDy=0;" parent="gHbopcMJqhLfQALP6Ct7-1" source="IAAMnW2y6-2EbQr6ppY7-16" edge="1">
          <mxGeometry relative="1" as="geometry">
            <mxPoint x="580" y="460" as="targetPoint" />
            <Array as="points">
              <mxPoint x="-900" y="460" />
            </Array>
          </mxGeometry>
        </mxCell>
        <mxCell id="IAAMnW2y6-2EbQr6ppY7-16" value="PUSH_AFTERFULL" style="rounded=0;whiteSpace=wrap;html=1;" parent="gHbopcMJqhLfQALP6Ct7-1" vertex="1">
          <mxGeometry x="-960" y="505" width="120" height="20" as="geometry" />
        </mxCell>
        <mxCell id="ugUvYMDnC1fzeENAK-n0-26" style="edgeStyle=orthogonalEdgeStyle;rounded=0;orthogonalLoop=1;jettySize=auto;html=1;exitX=0;exitY=0.5;exitDx=0;exitDy=0;" parent="gHbopcMJqhLfQALP6Ct7-1" source="kt5a-0p5IZ3u5DeEQboj-2" edge="1">
          <mxGeometry relative="1" as="geometry">
            <mxPoint x="-1320" y="1440.1764705882356" as="targetPoint" />
          </mxGeometry>
        </mxCell>
        <mxCell id="kt5a-0p5IZ3u5DeEQboj-2" value="&lt;div&gt;command_enable&lt;/div&gt;&lt;div&gt;por_enable&lt;br&gt;&lt;/div&gt;&lt;div&gt;readdata_enable&lt;br&gt;&lt;/div&gt;&lt;div&gt;fifo4_push&lt;br&gt;&lt;/div&gt;&lt;div&gt;readdatavalid&lt;br&gt;&lt;/div&gt;" style="rounded=0;whiteSpace=wrap;html=1;" parent="gHbopcMJqhLfQALP6Ct7-1" vertex="1">
          <mxGeometry x="-1240" y="1400" width="160" height="80" as="geometry" />
        </mxCell>
        <mxCell id="kt5a-0p5IZ3u5DeEQboj-3" value="PUSH_AFTERFULL_VALID" style="rounded=0;whiteSpace=wrap;html=1;" parent="gHbopcMJqhLfQALP6Ct7-1" vertex="1">
          <mxGeometry x="-1240" y="1380" width="160" height="20" as="geometry" />
        </mxCell>
        <mxCell id="kt5a-0p5IZ3u5DeEQboj-11" style="edgeStyle=orthogonalEdgeStyle;rounded=0;orthogonalLoop=1;jettySize=auto;html=1;exitX=0.5;exitY=1;exitDx=0;exitDy=0;" parent="gHbopcMJqhLfQALP6Ct7-1" source="kt5a-0p5IZ3u5DeEQboj-6" edge="1">
          <mxGeometry relative="1" as="geometry">
            <mxPoint x="-900" y="460" as="targetPoint" />
            <Array as="points">
              <mxPoint x="580" y="1920" />
              <mxPoint x="-1320" y="1920" />
              <mxPoint x="-1320" y="460" />
            </Array>
          </mxGeometry>
        </mxCell>
        <mxCell id="kt5a-0p5IZ3u5DeEQboj-6" value="&lt;div&gt;command_enable&lt;/div&gt;&lt;div&gt;por_enable&lt;br&gt;&lt;/div&gt;&lt;div&gt;readdata_enable&lt;br&gt;&lt;/div&gt;&lt;div&gt;fifo4_push&lt;br&gt;&lt;/div&gt;&lt;div&gt;readdatavalid&lt;br&gt;&lt;/div&gt;" style="rounded=0;whiteSpace=wrap;html=1;" parent="gHbopcMJqhLfQALP6Ct7-1" vertex="1">
          <mxGeometry x="520" y="1740" width="120" height="80" as="geometry" />
        </mxCell>
        <mxCell id="kt5a-0p5IZ3u5DeEQboj-7" value="PUSH_VALID" style="rounded=0;whiteSpace=wrap;html=1;" parent="gHbopcMJqhLfQALP6Ct7-1" vertex="1">
          <mxGeometry x="520" y="1720" width="120" height="20" as="geometry" />
        </mxCell>
        <mxCell id="k44mnLu3KN8C34HpBLnE-2" value="1" style="edgeStyle=orthogonalEdgeStyle;rounded=0;orthogonalLoop=1;jettySize=auto;html=1;exitX=0.5;exitY=0;exitDx=0;exitDy=0;entryX=1;entryY=0.5;entryDx=0;entryDy=0;" parent="gHbopcMJqhLfQALP6Ct7-1" source="k44mnLu3KN8C34HpBLnE-0" target="ugUvYMDnC1fzeENAK-n0-8" edge="1">
          <mxGeometry x="-0.8049" relative="1" as="geometry">
            <mxPoint x="-20" y="1360" as="targetPoint" />
            <mxPoint as="offset" />
            <mxPoint x="340" y="1459.94" as="sourcePoint" />
            <Array as="points">
              <mxPoint x="580" y="1200" />
            </Array>
          </mxGeometry>
        </mxCell>
        <mxCell id="k44mnLu3KN8C34HpBLnE-3" value="0" style="edgeStyle=orthogonalEdgeStyle;rounded=0;orthogonalLoop=1;jettySize=auto;html=1;exitX=0.5;exitY=1;exitDx=0;exitDy=0;entryX=0.5;entryY=0;entryDx=0;entryDy=0;" parent="gHbopcMJqhLfQALP6Ct7-1" source="k44mnLu3KN8C34HpBLnE-0" target="ugUvYMDnC1fzeENAK-n0-11" edge="1">
          <mxGeometry x="-0.8605" relative="1" as="geometry">
            <mxPoint x="80" y="1810" as="targetPoint" />
            <Array as="points">
              <mxPoint x="580" y="1430" />
              <mxPoint x="580" y="1430" />
            </Array>
            <mxPoint as="offset" />
          </mxGeometry>
        </mxCell>
        <mxCell id="k44mnLu3KN8C34HpBLnE-0" value="fifo4_almost_full" style="rhombus;whiteSpace=wrap;html=1;" parent="gHbopcMJqhLfQALP6Ct7-1" vertex="1">
          <mxGeometry x="520" y="1279.97" width="120" height="80" as="geometry" />
        </mxCell>
        <mxCell id="mH3VhtUJQ5IK_O_cGqcQ-1" value="0" style="edgeStyle=orthogonalEdgeStyle;rounded=0;orthogonalLoop=1;jettySize=auto;html=1;exitX=0.5;exitY=0;exitDx=0;exitDy=0;entryX=0.5;entryY=1;entryDx=0;entryDy=0;" parent="gHbopcMJqhLfQALP6Ct7-1" source="k44mnLu3KN8C34HpBLnE-5" target="Dui5A9PaYG02VlZJ2_Na-0" edge="1">
          <mxGeometry relative="1" as="geometry">
            <mxPoint x="760" y="630" as="targetPoint" />
            <Array as="points" />
            <mxPoint as="offset" />
          </mxGeometry>
        </mxCell>
        <mxCell id="mH3VhtUJQ5IK_O_cGqcQ-7" value="1" style="edgeStyle=orthogonalEdgeStyle;rounded=0;orthogonalLoop=1;jettySize=auto;html=1;exitX=1;exitY=0.5;exitDx=0;exitDy=0;entryX=0.5;entryY=0;entryDx=0;entryDy=0;" parent="gHbopcMJqhLfQALP6Ct7-1" source="k44mnLu3KN8C34HpBLnE-5" target="mH3VhtUJQ5IK_O_cGqcQ-2" edge="1">
          <mxGeometry relative="1" as="geometry" />
        </mxCell>
        <mxCell id="k44mnLu3KN8C34HpBLnE-5" value="op_req" style="rhombus;whiteSpace=wrap;html=1;" parent="gHbopcMJqhLfQALP6Ct7-1" vertex="1">
          <mxGeometry x="730" y="720" width="100" height="80" as="geometry" />
        </mxCell>
        <mxCell id="mH3VhtUJQ5IK_O_cGqcQ-8" value="0" style="edgeStyle=orthogonalEdgeStyle;rounded=0;orthogonalLoop=1;jettySize=auto;html=1;exitX=0;exitY=0.5;exitDx=0;exitDy=0;entryX=1;entryY=0.5;entryDx=0;entryDy=0;" parent="gHbopcMJqhLfQALP6Ct7-1" source="mH3VhtUJQ5IK_O_cGqcQ-2" target="mH3VhtUJQ5IK_O_cGqcQ-5" edge="1">
          <mxGeometry x="-0.7662" relative="1" as="geometry">
            <mxPoint as="offset" />
            <Array as="points">
              <mxPoint x="890" y="1000" />
              <mxPoint x="890" y="1000" />
            </Array>
          </mxGeometry>
        </mxCell>
        <mxCell id="E_kB2tADeyxWPAZdEd1G-1" value="1" style="edgeStyle=orthogonalEdgeStyle;rounded=0;orthogonalLoop=1;jettySize=auto;html=1;exitX=1;exitY=0.5;exitDx=0;exitDy=0;entryX=0;entryY=0.5;entryDx=0;entryDy=0;" parent="gHbopcMJqhLfQALP6Ct7-1" source="mH3VhtUJQ5IK_O_cGqcQ-2" target="E_kB2tADeyxWPAZdEd1G-0" edge="1">
          <mxGeometry x="-0.7419" relative="1" as="geometry">
            <mxPoint as="offset" />
          </mxGeometry>
        </mxCell>
        <mxCell id="mH3VhtUJQ5IK_O_cGqcQ-2" value="previous_op_req" style="rhombus;whiteSpace=wrap;html=1;" parent="gHbopcMJqhLfQALP6Ct7-1" vertex="1">
          <mxGeometry x="920" y="960" width="120" height="80" as="geometry" />
        </mxCell>
        <mxCell id="mH3VhtUJQ5IK_O_cGqcQ-9" value="1" style="edgeStyle=orthogonalEdgeStyle;rounded=0;orthogonalLoop=1;jettySize=auto;html=1;exitX=0.5;exitY=0;exitDx=0;exitDy=0;" parent="gHbopcMJqhLfQALP6Ct7-1" source="mH3VhtUJQ5IK_O_cGqcQ-5" edge="1">
          <mxGeometry x="-0.6923" relative="1" as="geometry">
            <mxPoint as="offset" />
            <mxPoint x="780" y="880" as="targetPoint" />
            <Array as="points">
              <mxPoint x="780" y="910" />
              <mxPoint x="780" y="910" />
            </Array>
          </mxGeometry>
        </mxCell>
        <mxCell id="mH3VhtUJQ5IK_O_cGqcQ-12" value="0" style="edgeStyle=orthogonalEdgeStyle;rounded=0;orthogonalLoop=1;jettySize=auto;html=1;exitX=0.5;exitY=1;exitDx=0;exitDy=0;" parent="gHbopcMJqhLfQALP6Ct7-1" source="mH3VhtUJQ5IK_O_cGqcQ-5" edge="1">
          <mxGeometry x="-0.7917" relative="1" as="geometry">
            <mxPoint x="1180" y="1120" as="targetPoint" />
            <mxPoint y="1" as="offset" />
            <mxPoint x="950" y="1250" as="sourcePoint" />
            <Array as="points">
              <mxPoint x="780" y="1120" />
            </Array>
          </mxGeometry>
        </mxCell>
        <mxCell id="mH3VhtUJQ5IK_O_cGqcQ-5" value="fifo4_full" style="rhombus;whiteSpace=wrap;html=1;" parent="gHbopcMJqhLfQALP6Ct7-1" vertex="1">
          <mxGeometry x="730" y="960" width="100" height="80" as="geometry" />
        </mxCell>
        <mxCell id="mH3VhtUJQ5IK_O_cGqcQ-13" style="edgeStyle=orthogonalEdgeStyle;rounded=0;orthogonalLoop=1;jettySize=auto;html=1;exitX=0.5;exitY=1;exitDx=0;exitDy=0;" parent="gHbopcMJqhLfQALP6Ct7-1" source="mH3VhtUJQ5IK_O_cGqcQ-10" edge="1">
          <mxGeometry relative="1" as="geometry">
            <mxPoint x="580" y="1920" as="targetPoint" />
            <Array as="points">
              <mxPoint x="1180" y="1920" />
            </Array>
          </mxGeometry>
        </mxCell>
        <mxCell id="mH3VhtUJQ5IK_O_cGqcQ-10" value="&lt;div&gt;command_enable&lt;/div&gt;&lt;div&gt;por_enable&lt;br&gt;&lt;/div&gt;&lt;div&gt;readdata_enable&lt;br&gt;&lt;/div&gt;&lt;div&gt;fifo4_push&lt;br&gt;&lt;/div&gt;" style="rounded=0;whiteSpace=wrap;html=1;" parent="gHbopcMJqhLfQALP6Ct7-1" vertex="1">
          <mxGeometry x="1120" y="1740" width="120" height="80" as="geometry" />
        </mxCell>
        <mxCell id="mH3VhtUJQ5IK_O_cGqcQ-11" value="PUSH" style="rounded=0;whiteSpace=wrap;html=1;" parent="gHbopcMJqhLfQALP6Ct7-1" vertex="1">
          <mxGeometry x="1120" y="1720" width="120" height="20" as="geometry" />
        </mxCell>
        <mxCell id="E_kB2tADeyxWPAZdEd1G-2" value="0" style="edgeStyle=orthogonalEdgeStyle;rounded=0;orthogonalLoop=1;jettySize=auto;html=1;exitX=0.5;exitY=1;exitDx=0;exitDy=0;entryX=0.5;entryY=0;entryDx=0;entryDy=0;" parent="gHbopcMJqhLfQALP6Ct7-1" source="E_kB2tADeyxWPAZdEd1G-0" target="ugUvYMDnC1fzeENAK-n0-2" edge="1">
          <mxGeometry x="-0.8462" relative="1" as="geometry">
            <mxPoint x="980" y="1260" as="targetPoint" />
            <Array as="points">
              <mxPoint x="1180" y="1290" />
              <mxPoint x="1180" y="1290" />
            </Array>
            <mxPoint as="offset" />
          </mxGeometry>
        </mxCell>
        <mxCell id="E_kB2tADeyxWPAZdEd1G-3" value="1" style="edgeStyle=orthogonalEdgeStyle;rounded=0;orthogonalLoop=1;jettySize=auto;html=1;exitX=0.5;exitY=0;exitDx=0;exitDy=0;entryX=1;entryY=0.5;entryDx=0;entryDy=0;" parent="gHbopcMJqhLfQALP6Ct7-1" source="E_kB2tADeyxWPAZdEd1G-0" target="ugUvYMDnC1fzeENAK-n0-5" edge="1">
          <mxGeometry x="-0.9302" relative="1" as="geometry">
            <mxPoint x="-140" y="880" as="targetPoint" />
            <mxPoint as="offset" />
            <Array as="points">
              <mxPoint x="1180" y="880" />
            </Array>
          </mxGeometry>
        </mxCell>
        <mxCell id="E_kB2tADeyxWPAZdEd1G-0" value="fifo4_almost_full" style="rhombus;whiteSpace=wrap;html=1;" parent="gHbopcMJqhLfQALP6Ct7-1" vertex="1">
          <mxGeometry x="1120" y="960" width="120" height="80" as="geometry" />
        </mxCell>
        <mxCell id="V3g81w3uFP9GTWw9bQNz-0" value="0" style="edgeStyle=orthogonalEdgeStyle;rounded=0;orthogonalLoop=1;jettySize=auto;html=1;exitX=0.5;exitY=0;exitDx=0;exitDy=0;" parent="gHbopcMJqhLfQALP6Ct7-1" source="Dui5A9PaYG02VlZJ2_Na-0" edge="1">
          <mxGeometry x="-0.9344" relative="1" as="geometry">
            <mxPoint x="1180" y="260" as="targetPoint" />
            <Array as="points">
              <mxPoint x="780" y="260" />
            </Array>
            <mxPoint as="offset" />
          </mxGeometry>
        </mxCell>
        <mxCell id="V3g81w3uFP9GTWw9bQNz-2" value="1" style="edgeStyle=orthogonalEdgeStyle;rounded=0;orthogonalLoop=1;jettySize=auto;html=1;exitX=1;exitY=0.5;exitDx=0;exitDy=0;" parent="gHbopcMJqhLfQALP6Ct7-1" source="Dui5A9PaYG02VlZJ2_Na-0" edge="1">
          <mxGeometry x="-0.75" relative="1" as="geometry">
            <mxPoint x="1120" y="560" as="targetPoint" />
            <Array as="points">
              <mxPoint x="880" y="560" />
              <mxPoint x="880" y="560" />
            </Array>
            <mxPoint as="offset" />
          </mxGeometry>
        </mxCell>
        <mxCell id="Dui5A9PaYG02VlZJ2_Na-0" value="&lt;div&gt;mem_busy = 0&lt;/div&gt;&lt;div&gt;fifo4_empty = 0&lt;/div&gt;&lt;div&gt;mem_avail = 1&lt;br&gt;&lt;/div&gt;" style="rhombus;whiteSpace=wrap;html=1;" parent="gHbopcMJqhLfQALP6Ct7-1" vertex="1">
          <mxGeometry x="700" y="510" width="160" height="100" as="geometry" />
        </mxCell>
        <mxCell id="ugUvYMDnC1fzeENAK-n0-1" style="edgeStyle=orthogonalEdgeStyle;rounded=0;orthogonalLoop=1;jettySize=auto;html=1;exitX=0.5;exitY=0;exitDx=0;exitDy=0;entryX=0.5;entryY=0;entryDx=0;entryDy=0;" parent="gHbopcMJqhLfQALP6Ct7-1" source="mhjrLPfmGIPaGUOXnaPU-3" target="5lTAiwlnq1v5YwnoY-Tq-0" edge="1">
          <mxGeometry relative="1" as="geometry">
            <mxPoint x="590" y="480.304347826087" as="targetPoint" />
            <Array as="points">
              <mxPoint x="1180" y="460" />
              <mxPoint x="580" y="460" />
            </Array>
          </mxGeometry>
        </mxCell>
        <mxCell id="mhjrLPfmGIPaGUOXnaPU-2" value="&lt;div&gt;command_enable&lt;/div&gt;&lt;div&gt;por_enable&lt;br&gt;&lt;/div&gt;&lt;div&gt;readdata_enable&lt;br&gt;&lt;/div&gt;&lt;div&gt;mem_enable&lt;/div&gt;&lt;div&gt;fifo4_pop&lt;br&gt;&lt;/div&gt;" style="rounded=0;whiteSpace=wrap;html=1;" parent="gHbopcMJqhLfQALP6Ct7-1" vertex="1">
          <mxGeometry x="1120" y="520" width="120" height="95" as="geometry" />
        </mxCell>
        <mxCell id="mhjrLPfmGIPaGUOXnaPU-3" value="IDLE_POP" style="rounded=0;whiteSpace=wrap;html=1;" parent="gHbopcMJqhLfQALP6Ct7-1" vertex="1">
          <mxGeometry x="1120" y="505" width="120" height="20" as="geometry" />
        </mxCell>
        <mxCell id="mhjrLPfmGIPaGUOXnaPU-13" value="0" style="edgeStyle=orthogonalEdgeStyle;rounded=0;orthogonalLoop=1;jettySize=auto;html=1;exitX=0.5;exitY=0;exitDx=0;exitDy=0;entryX=0.5;entryY=0;entryDx=0;entryDy=0;" parent="gHbopcMJqhLfQALP6Ct7-1" source="ugUvYMDnC1fzeENAK-n0-3" target="dTlI5wrIrm0M_NYCQq1E-2" edge="1">
          <mxGeometry x="-0.9385" relative="1" as="geometry">
            <Array as="points">
              <mxPoint x="380" y="260" />
              <mxPoint x="-20" y="260" />
            </Array>
            <mxPoint as="offset" />
            <mxPoint x="410" y="520" as="sourcePoint" />
          </mxGeometry>
        </mxCell>
        <mxCell id="mhjrLPfmGIPaGUOXnaPU-28" value="1" style="edgeStyle=orthogonalEdgeStyle;rounded=0;orthogonalLoop=1;jettySize=auto;html=1;exitX=0;exitY=0.5;exitDx=0;exitDy=0;entryX=1;entryY=0.5;entryDx=0;entryDy=0;" parent="gHbopcMJqhLfQALP6Ct7-1" source="ugUvYMDnC1fzeENAK-n0-3" target="mhjrLPfmGIPaGUOXnaPU-25" edge="1">
          <mxGeometry x="-0.7778" relative="1" as="geometry">
            <mxPoint x="120" y="560" as="targetPoint" />
            <Array as="points" />
            <mxPoint as="offset" />
            <mxPoint x="-40" y="560" as="sourcePoint" />
          </mxGeometry>
        </mxCell>
        <mxCell id="mhjrLPfmGIPaGUOXnaPU-25" value="&lt;div&gt;command_enable&lt;/div&gt;&lt;div&gt;por_enable&lt;br&gt;&lt;/div&gt;&lt;div&gt;readdata_enable&lt;br&gt;&lt;/div&gt;&lt;div&gt;readdatavalid&lt;br&gt;&lt;/div&gt;&lt;div&gt;mem_enable&lt;/div&gt;&lt;div&gt;fifo4_pop&lt;br&gt;&lt;/div&gt;" style="rounded=0;whiteSpace=wrap;html=1;" parent="gHbopcMJqhLfQALP6Ct7-1" vertex="1">
          <mxGeometry x="-80" y="510" width="120" height="100" as="geometry" />
        </mxCell>
        <mxCell id="mhjrLPfmGIPaGUOXnaPU-27" style="edgeStyle=orthogonalEdgeStyle;rounded=0;orthogonalLoop=1;jettySize=auto;html=1;exitX=0.5;exitY=0;exitDx=0;exitDy=0;" parent="gHbopcMJqhLfQALP6Ct7-1" source="mhjrLPfmGIPaGUOXnaPU-26" edge="1">
          <mxGeometry relative="1" as="geometry">
            <mxPoint x="-20" y="460" as="targetPoint" />
            <Array as="points">
              <mxPoint x="-20" y="470" />
              <mxPoint x="-20" y="470" />
            </Array>
          </mxGeometry>
        </mxCell>
        <mxCell id="mhjrLPfmGIPaGUOXnaPU-26" value="IDLE_POP_VALID" style="rounded=0;whiteSpace=wrap;html=1;" parent="gHbopcMJqhLfQALP6Ct7-1" vertex="1">
          <mxGeometry x="-80" y="490" width="120" height="20" as="geometry" />
        </mxCell>
        <mxCell id="mhjrLPfmGIPaGUOXnaPU-36" value="&lt;div&gt;waitrequest&lt;/div&gt;&lt;div&gt;readdata_enable&lt;br&gt;&lt;/div&gt;&lt;div&gt;mem_enable&lt;/div&gt;&lt;div&gt;fifo4_pop&lt;br&gt;&lt;/div&gt;" style="rounded=0;whiteSpace=wrap;html=1;" parent="gHbopcMJqhLfQALP6Ct7-1" vertex="1">
          <mxGeometry x="-480" y="855" width="120" height="70" as="geometry" />
        </mxCell>
        <mxCell id="mhjrLPfmGIPaGUOXnaPU-37" value="WAITING_POP" style="rounded=0;whiteSpace=wrap;html=1;" parent="gHbopcMJqhLfQALP6Ct7-1" vertex="1">
          <mxGeometry x="-480" y="835" width="120" height="20" as="geometry" />
        </mxCell>
        <mxCell id="vAJ9OHpdQopsDBLFH6ca-5" value="" style="endArrow=classic;html=1;rounded=0;" parent="gHbopcMJqhLfQALP6Ct7-1" edge="1">
          <mxGeometry width="50" height="50" relative="1" as="geometry">
            <mxPoint x="-480" y="880" as="sourcePoint" />
            <mxPoint x="-580" y="1040" as="targetPoint" />
            <Array as="points">
              <mxPoint x="-580" y="880" />
            </Array>
          </mxGeometry>
        </mxCell>
        <mxCell id="vAJ9OHpdQopsDBLFH6ca-25" style="edgeStyle=orthogonalEdgeStyle;rounded=0;orthogonalLoop=1;jettySize=auto;html=1;exitX=0;exitY=0.5;exitDx=0;exitDy=0;" parent="gHbopcMJqhLfQALP6Ct7-1" source="kvlA3hQWvPA95vudkCkl-4" edge="1">
          <mxGeometry relative="1" as="geometry">
            <mxPoint x="-580" y="1200.06" as="targetPoint" />
            <mxPoint x="-540" y="1340.06" as="sourcePoint" />
          </mxGeometry>
        </mxCell>
        <mxCell id="vAJ9OHpdQopsDBLFH6ca-19" value="&lt;div&gt;waitrequest&lt;/div&gt;&lt;div&gt;readdata_enable&lt;br&gt;&lt;/div&gt;&lt;div&gt;readdatavalid&lt;/div&gt;&lt;div&gt;mem_enable&lt;/div&gt;&lt;div&gt;fifo4_pop&lt;br&gt;&lt;/div&gt;" style="rounded=0;whiteSpace=wrap;html=1;" parent="gHbopcMJqhLfQALP6Ct7-1" vertex="1">
          <mxGeometry x="-490" y="1160" width="140" height="80" as="geometry" />
        </mxCell>
        <mxCell id="vAJ9OHpdQopsDBLFH6ca-20" value="WAITING_POP_VALID" style="rounded=0;whiteSpace=wrap;html=1;" parent="gHbopcMJqhLfQALP6Ct7-1" vertex="1">
          <mxGeometry x="-490" y="1140" width="140" height="20" as="geometry" />
        </mxCell>
        <mxCell id="vAJ9OHpdQopsDBLFH6ca-27" value="0" style="edgeStyle=orthogonalEdgeStyle;rounded=0;orthogonalLoop=1;jettySize=auto;html=1;exitX=0.5;exitY=1;exitDx=0;exitDy=0;entryX=0.5;entryY=0;entryDx=0;entryDy=0;" parent="gHbopcMJqhLfQALP6Ct7-1" source="ugUvYMDnC1fzeENAK-n0-2" target="mH3VhtUJQ5IK_O_cGqcQ-11" edge="1">
          <mxGeometry x="-0.8537" relative="1" as="geometry">
            <mxPoint as="offset" />
            <mxPoint x="1000" y="1210" as="sourcePoint" />
          </mxGeometry>
        </mxCell>
        <mxCell id="vAJ9OHpdQopsDBLFH6ca-35" value="1" style="edgeStyle=orthogonalEdgeStyle;rounded=0;orthogonalLoop=1;jettySize=auto;html=1;exitX=0;exitY=0.5;exitDx=0;exitDy=0;entryX=0.5;entryY=0;entryDx=0;entryDy=0;" parent="gHbopcMJqhLfQALP6Ct7-1" source="ugUvYMDnC1fzeENAK-n0-2" target="vAJ9OHpdQopsDBLFH6ca-34" edge="1">
          <mxGeometry x="-0.907" relative="1" as="geometry">
            <Array as="points">
              <mxPoint x="780" y="1320" />
            </Array>
            <mxPoint as="offset" />
            <mxPoint x="880" y="1470" as="sourcePoint" />
          </mxGeometry>
        </mxCell>
        <mxCell id="vAJ9OHpdQopsDBLFH6ca-36" style="edgeStyle=orthogonalEdgeStyle;rounded=0;orthogonalLoop=1;jettySize=auto;html=1;exitX=0.5;exitY=1;exitDx=0;exitDy=0;" parent="gHbopcMJqhLfQALP6Ct7-1" source="vAJ9OHpdQopsDBLFH6ca-33" edge="1">
          <mxGeometry relative="1" as="geometry">
            <mxPoint x="780" y="1920" as="targetPoint" />
          </mxGeometry>
        </mxCell>
        <mxCell id="vAJ9OHpdQopsDBLFH6ca-33" value="&lt;div&gt;command_enable&lt;/div&gt;&lt;div&gt;por_enable&lt;br&gt;&lt;/div&gt;&lt;div&gt;readdata_enable&lt;br&gt;&lt;/div&gt;&lt;div&gt;fifo4_push&lt;br&gt;&lt;/div&gt;&lt;div&gt;mem_enable&lt;/div&gt;&lt;div&gt;fifo4_pop&lt;br&gt;&lt;/div&gt;" style="rounded=0;whiteSpace=wrap;html=1;" parent="gHbopcMJqhLfQALP6Ct7-1" vertex="1">
          <mxGeometry x="720" y="1730" width="120" height="100" as="geometry" />
        </mxCell>
        <mxCell id="vAJ9OHpdQopsDBLFH6ca-34" value="PUSH_POP" style="rounded=0;whiteSpace=wrap;html=1;" parent="gHbopcMJqhLfQALP6Ct7-1" vertex="1">
          <mxGeometry x="720" y="1710" width="120" height="20" as="geometry" />
        </mxCell>
        <mxCell id="ugUvYMDnC1fzeENAK-n0-28" style="edgeStyle=orthogonalEdgeStyle;rounded=0;orthogonalLoop=1;jettySize=auto;html=1;exitX=0.5;exitY=1;exitDx=0;exitDy=0;" parent="gHbopcMJqhLfQALP6Ct7-1" source="vAJ9OHpdQopsDBLFH6ca-55" edge="1">
          <mxGeometry relative="1" as="geometry">
            <mxPoint x="180" y="1920" as="targetPoint" />
          </mxGeometry>
        </mxCell>
        <mxCell id="vAJ9OHpdQopsDBLFH6ca-55" value="&lt;div&gt;command_enable&lt;/div&gt;&lt;div&gt;por_enable&lt;br&gt;&lt;/div&gt;&lt;div&gt;readdata_enable&lt;br&gt;&lt;/div&gt;&lt;div&gt;fifo4_push&lt;br&gt;&lt;/div&gt;&lt;div&gt;readdatavalid&lt;br&gt;&lt;/div&gt;&lt;div&gt;mem_enable&lt;/div&gt;&lt;div&gt;fifo4_pop&lt;br&gt;&lt;/div&gt;" style="rounded=0;whiteSpace=wrap;html=1;" parent="gHbopcMJqhLfQALP6Ct7-1" vertex="1">
          <mxGeometry x="120" y="1725" width="120" height="110" as="geometry" />
        </mxCell>
        <mxCell id="vAJ9OHpdQopsDBLFH6ca-56" value="PUSH_POP_VALID" style="rounded=0;whiteSpace=wrap;html=1;" parent="gHbopcMJqhLfQALP6Ct7-1" vertex="1">
          <mxGeometry x="120" y="1705" width="120" height="20" as="geometry" />
        </mxCell>
        <mxCell id="vAJ9OHpdQopsDBLFH6ca-76" style="edgeStyle=orthogonalEdgeStyle;rounded=0;orthogonalLoop=1;jettySize=auto;html=1;exitX=0.5;exitY=1;exitDx=0;exitDy=0;" parent="gHbopcMJqhLfQALP6Ct7-1" source="vAJ9OHpdQopsDBLFH6ca-71" edge="1">
          <mxGeometry relative="1" as="geometry">
            <mxPoint x="-900" y="1920" as="targetPoint" />
          </mxGeometry>
        </mxCell>
        <mxCell id="vAJ9OHpdQopsDBLFH6ca-71" value="&lt;div&gt;command_enable&lt;/div&gt;&lt;div&gt;por_enable&lt;br&gt;&lt;/div&gt;&lt;div&gt;readdata_enable&lt;br&gt;&lt;/div&gt;&lt;div&gt;fifo4_push&lt;br&gt;&lt;/div&gt;&lt;div&gt;readdatavalid&lt;br&gt;&lt;/div&gt;&lt;div&gt;mem_enable&lt;/div&gt;&lt;div&gt;fifo4_pop&lt;br&gt;&lt;/div&gt;" style="rounded=0;whiteSpace=wrap;html=1;" parent="gHbopcMJqhLfQALP6Ct7-1" vertex="1">
          <mxGeometry x="-1000" y="1725" width="200" height="110" as="geometry" />
        </mxCell>
        <mxCell id="vAJ9OHpdQopsDBLFH6ca-72" value="PUSH_AFTERFULL_POP_VALID" style="rounded=0;whiteSpace=wrap;html=1;" parent="gHbopcMJqhLfQALP6Ct7-1" vertex="1">
          <mxGeometry x="-1000" y="1705" width="200" height="20" as="geometry" />
        </mxCell>
        <mxCell id="3OaTQPlmbVttKwKVyQs0-19" style="edgeStyle=orthogonalEdgeStyle;rounded=0;orthogonalLoop=1;jettySize=auto;html=1;exitX=0;exitY=0.5;exitDx=0;exitDy=0;" parent="gHbopcMJqhLfQALP6Ct7-1" source="3OaTQPlmbVttKwKVyQs0-15" edge="1">
          <mxGeometry relative="1" as="geometry">
            <mxPoint x="-1320" y="760" as="targetPoint" />
          </mxGeometry>
        </mxCell>
        <mxCell id="3OaTQPlmbVttKwKVyQs0-15" value="&lt;div&gt;command_enable&lt;/div&gt;&lt;div&gt;por_enable&lt;br&gt;&lt;/div&gt;&lt;div&gt;readdata_enable&lt;br&gt;&lt;/div&gt;&lt;div&gt;fifo4_push&lt;br&gt;&lt;/div&gt;&lt;div&gt;mem_enable&lt;/div&gt;&lt;div&gt;fifo4_pop&lt;br&gt;&lt;/div&gt;" style="rounded=0;whiteSpace=wrap;html=1;" parent="gHbopcMJqhLfQALP6Ct7-1" vertex="1">
          <mxGeometry x="-1240" y="710" width="160" height="100" as="geometry" />
        </mxCell>
        <mxCell id="3OaTQPlmbVttKwKVyQs0-16" value="PUSH_AFTERFULL_POP" style="rounded=0;whiteSpace=wrap;html=1;" parent="gHbopcMJqhLfQALP6Ct7-1" vertex="1">
          <mxGeometry x="-1240" y="690" width="160" height="20" as="geometry" />
        </mxCell>
        <mxCell id="ugUvYMDnC1fzeENAK-n0-2" value="&lt;div&gt;mem_busy = 0&lt;/div&gt;&lt;div&gt;fifo4_empty = 0&lt;/div&gt;&lt;div&gt;mem_avail = 1&lt;br&gt;&lt;/div&gt;" style="rhombus;whiteSpace=wrap;html=1;" parent="gHbopcMJqhLfQALP6Ct7-1" vertex="1">
          <mxGeometry x="1100" y="1269.97" width="160" height="100" as="geometry" />
        </mxCell>
        <mxCell id="ugUvYMDnC1fzeENAK-n0-3" value="&lt;div&gt;mem_busy = 0&lt;/div&gt;&lt;div&gt;fifo4_empty = 0&lt;/div&gt;&lt;div&gt;mem_avail = 1&lt;br&gt;&lt;/div&gt;" style="rhombus;whiteSpace=wrap;html=1;" parent="gHbopcMJqhLfQALP6Ct7-1" vertex="1">
          <mxGeometry x="300" y="510" width="160" height="100" as="geometry" />
        </mxCell>
        <mxCell id="ugUvYMDnC1fzeENAK-n0-6" value="0" style="edgeStyle=orthogonalEdgeStyle;rounded=0;orthogonalLoop=1;jettySize=auto;html=1;exitX=0.5;exitY=1;exitDx=0;exitDy=0;entryX=1;entryY=0.5;entryDx=0;entryDy=0;" parent="gHbopcMJqhLfQALP6Ct7-1" source="ugUvYMDnC1fzeENAK-n0-5" target="IAAMnW2y6-2EbQr6ppY7-5" edge="1">
          <mxGeometry x="-0.84" relative="1" as="geometry">
            <mxPoint as="offset" />
          </mxGeometry>
        </mxCell>
        <mxCell id="ugUvYMDnC1fzeENAK-n0-7" value="1" style="edgeStyle=orthogonalEdgeStyle;rounded=0;orthogonalLoop=1;jettySize=auto;html=1;exitX=0;exitY=0.5;exitDx=0;exitDy=0;" parent="gHbopcMJqhLfQALP6Ct7-1" source="ugUvYMDnC1fzeENAK-n0-5" edge="1">
          <mxGeometry x="-0.7717" relative="1" as="geometry">
            <mxPoint x="-360" y="880" as="targetPoint" />
            <mxPoint as="offset" />
          </mxGeometry>
        </mxCell>
        <mxCell id="ugUvYMDnC1fzeENAK-n0-5" value="&lt;div&gt;mem_busy = 0&lt;/div&gt;&lt;div&gt;fifo4_empty = 0&lt;/div&gt;&lt;div&gt;mem_avail = 1&lt;br&gt;&lt;/div&gt;" style="rhombus;whiteSpace=wrap;html=1;" parent="gHbopcMJqhLfQALP6Ct7-1" vertex="1">
          <mxGeometry x="-300" y="830" width="160" height="100" as="geometry" />
        </mxCell>
        <mxCell id="ugUvYMDnC1fzeENAK-n0-9" value="1" style="edgeStyle=orthogonalEdgeStyle;rounded=0;orthogonalLoop=1;jettySize=auto;html=1;exitX=0;exitY=0.5;exitDx=0;exitDy=0;entryX=1;entryY=0.5;entryDx=0;entryDy=0;" parent="gHbopcMJqhLfQALP6Ct7-1" source="ugUvYMDnC1fzeENAK-n0-8" target="vAJ9OHpdQopsDBLFH6ca-19" edge="1">
          <mxGeometry x="-0.7059" relative="1" as="geometry">
            <mxPoint as="offset" />
          </mxGeometry>
        </mxCell>
        <mxCell id="ugUvYMDnC1fzeENAK-n0-10" value="0" style="edgeStyle=orthogonalEdgeStyle;rounded=0;orthogonalLoop=1;jettySize=auto;html=1;exitX=0.5;exitY=1;exitDx=0;exitDy=0;entryX=1;entryY=0.5;entryDx=0;entryDy=0;" parent="gHbopcMJqhLfQALP6Ct7-1" source="ugUvYMDnC1fzeENAK-n0-8" target="kvlA3hQWvPA95vudkCkl-4" edge="1">
          <mxGeometry x="-0.8077" relative="1" as="geometry">
            <mxPoint as="offset" />
          </mxGeometry>
        </mxCell>
        <mxCell id="ugUvYMDnC1fzeENAK-n0-8" value="&lt;div&gt;mem_busy = 0&lt;/div&gt;&lt;div&gt;fifo4_empty = 0&lt;/div&gt;&lt;div&gt;mem_avail = 1&lt;br&gt;&lt;/div&gt;" style="rhombus;whiteSpace=wrap;html=1;" parent="gHbopcMJqhLfQALP6Ct7-1" vertex="1">
          <mxGeometry x="-300" y="1150" width="160" height="100" as="geometry" />
        </mxCell>
        <mxCell id="ugUvYMDnC1fzeENAK-n0-12" value="1" style="edgeStyle=orthogonalEdgeStyle;rounded=0;orthogonalLoop=1;jettySize=auto;html=1;exitX=0;exitY=0.5;exitDx=0;exitDy=0;entryX=0.5;entryY=0;entryDx=0;entryDy=0;" parent="gHbopcMJqhLfQALP6Ct7-1" source="ugUvYMDnC1fzeENAK-n0-11" target="vAJ9OHpdQopsDBLFH6ca-56" edge="1">
          <mxGeometry x="-0.88" relative="1" as="geometry">
            <mxPoint x="-400" y="1690" as="targetPoint" />
            <Array as="points">
              <mxPoint x="180" y="1560" />
            </Array>
            <mxPoint y="-1" as="offset" />
          </mxGeometry>
        </mxCell>
        <mxCell id="ugUvYMDnC1fzeENAK-n0-13" value="0" style="edgeStyle=orthogonalEdgeStyle;rounded=0;orthogonalLoop=1;jettySize=auto;html=1;entryX=0.5;entryY=0;entryDx=0;entryDy=0;exitX=0.5;exitY=1;exitDx=0;exitDy=0;" parent="gHbopcMJqhLfQALP6Ct7-1" target="kt5a-0p5IZ3u5DeEQboj-7" edge="1">
          <mxGeometry x="-0.8333" relative="1" as="geometry">
            <mxPoint x="-390" y="2025" as="targetPoint" />
            <mxPoint x="580" y="1615" as="sourcePoint" />
            <Array as="points">
              <mxPoint x="580" y="1685" />
              <mxPoint x="580" y="1685" />
            </Array>
            <mxPoint as="offset" />
          </mxGeometry>
        </mxCell>
        <mxCell id="ugUvYMDnC1fzeENAK-n0-11" value="&lt;div&gt;mem_busy = 0&lt;/div&gt;&lt;div&gt;fifo4_empty = 0&lt;/div&gt;&lt;div&gt;mem_avail = 1&lt;br&gt;&lt;/div&gt;" style="rhombus;whiteSpace=wrap;html=1;" parent="gHbopcMJqhLfQALP6Ct7-1" vertex="1">
          <mxGeometry x="500" y="1510" width="160" height="100" as="geometry" />
        </mxCell>
        <mxCell id="ugUvYMDnC1fzeENAK-n0-16" value="0" style="edgeStyle=orthogonalEdgeStyle;rounded=0;orthogonalLoop=1;jettySize=auto;html=1;exitX=0;exitY=0.5;exitDx=0;exitDy=0;entryX=1;entryY=0.5;entryDx=0;entryDy=0;" parent="gHbopcMJqhLfQALP6Ct7-1" source="ugUvYMDnC1fzeENAK-n0-15" target="kt5a-0p5IZ3u5DeEQboj-2" edge="1">
          <mxGeometry x="-0.7818" relative="1" as="geometry">
            <mxPoint as="offset" />
          </mxGeometry>
        </mxCell>
        <mxCell id="ugUvYMDnC1fzeENAK-n0-17" value="1" style="edgeStyle=orthogonalEdgeStyle;rounded=0;orthogonalLoop=1;jettySize=auto;html=1;exitX=0.5;exitY=1;exitDx=0;exitDy=0;entryX=0.5;entryY=0;entryDx=0;entryDy=0;" parent="gHbopcMJqhLfQALP6Ct7-1" source="ugUvYMDnC1fzeENAK-n0-15" target="vAJ9OHpdQopsDBLFH6ca-72" edge="1">
          <mxGeometry x="-0.7949" relative="1" as="geometry">
            <mxPoint as="offset" />
          </mxGeometry>
        </mxCell>
        <mxCell id="ugUvYMDnC1fzeENAK-n0-15" value="&lt;div&gt;mem_busy = 0&lt;/div&gt;&lt;div&gt;fifo4_empty = 0&lt;/div&gt;&lt;div&gt;mem_avail = 1&lt;br&gt;&lt;/div&gt;" style="rhombus;whiteSpace=wrap;html=1;" parent="gHbopcMJqhLfQALP6Ct7-1" vertex="1">
          <mxGeometry x="-980" y="1390" width="160" height="100" as="geometry" />
        </mxCell>
        <mxCell id="ugUvYMDnC1fzeENAK-n0-19" value="0" style="edgeStyle=orthogonalEdgeStyle;rounded=0;orthogonalLoop=1;jettySize=auto;html=1;exitX=0.5;exitY=0;exitDx=0;exitDy=0;entryX=0.5;entryY=1;entryDx=0;entryDy=0;" parent="gHbopcMJqhLfQALP6Ct7-1" source="ugUvYMDnC1fzeENAK-n0-18" target="IAAMnW2y6-2EbQr6ppY7-15" edge="1">
          <mxGeometry x="-0.6981" relative="1" as="geometry">
            <mxPoint as="offset" />
          </mxGeometry>
        </mxCell>
        <mxCell id="ugUvYMDnC1fzeENAK-n0-20" value="1" style="edgeStyle=orthogonalEdgeStyle;rounded=0;orthogonalLoop=1;jettySize=auto;html=1;exitX=0;exitY=0.5;exitDx=0;exitDy=0;entryX=1;entryY=0.5;entryDx=0;entryDy=0;" parent="gHbopcMJqhLfQALP6Ct7-1" source="ugUvYMDnC1fzeENAK-n0-18" target="3OaTQPlmbVttKwKVyQs0-15" edge="1">
          <mxGeometry x="-0.863" relative="1" as="geometry">
            <mxPoint as="offset" />
          </mxGeometry>
        </mxCell>
        <mxCell id="ugUvYMDnC1fzeENAK-n0-18" value="&lt;div&gt;mem_busy = 0&lt;/div&gt;&lt;div&gt;fifo4_empty = 0&lt;/div&gt;&lt;div&gt;mem_avail = 1&lt;br&gt;&lt;/div&gt;" style="rhombus;whiteSpace=wrap;html=1;" parent="gHbopcMJqhLfQALP6Ct7-1" vertex="1">
          <mxGeometry x="-980" y="710" width="160" height="100" as="geometry" />
        </mxCell>
      </root>
    </mxGraphModel>
  </diagram>
</mxfile>
